<?xml version="1.0" encoding="UTF-8"?>
<!DOCTYPE svg PUBLIC "-//W3C//DTD SVG 1.1//EN" "http://www.w3.org/Graphics/SVG/1.1/DTD/svg11.dtd">
<!-- Creator: CorelDRAW 2021 (64-Bit) -->
<svg xmlns="http://www.w3.org/2000/svg" xml:space="preserve" width="200mm" height="200mm" version="1.1" style="shape-rendering:geometricPrecision; text-rendering:geometricPrecision; image-rendering:optimizeQuality; fill-rule:evenodd; clip-rule:evenodd"
viewBox="0 0 20000 20000"
 xmlns:xlink="http://www.w3.org/1999/xlink"
 xmlns:xodm="http://www.corel.com/coreldraw/odm/2003">
 <defs>
  <style type="text/css">
   <![CDATA[
    .str0 {stroke:black;stroke-width:52.92;stroke-miterlimit:22.9256}
    .fil0 {fill:none}
    .fil6 {fill:#FEFEFE}
    .fil5 {fill:#ED3237}
    .fil1 {fill:white}
    .fil4 {fill:#0052BA}
    .fil2 {fill:#009E60}
    .fil7 {fill:#FEFEFE;fill-rule:nonzero}
    .fil8 {fill:#373435;fill-rule:nonzero}
    .fil3 {fill:#006A53;fill-rule:nonzero}
   ]]>
  </style>
 </defs>
 <g id="Capa_x0020_1">
  <metadata id="CorelCorpID_0Corel-Layer"/>
  <rect class="fil0" x="6579.62" y="6562.15" width="6783.26" height="6902.37"/>
  <g id="_1866121748448">
   <path class="fil1 str0" d="M9969.18 10.32c5522.85,0 10000,4477.16 10000,10000 0,5522.83 -4477.15,10000 -10000,10000 -5522.85,0 -9999.99,-4477.17 -9999.99,-10000 0,-5522.84 4477.14,-10000 9999.99,-10000z"/>
   <g>
    <path class="fil2" d="M9931.18 15970.41c-3227.62,0 -5845.12,-2630.94 -5845.12,-5875.15 0,-3244.2 2617.5,-5875.15 5845.12,-5875.15 3227.65,0 5845.13,2630.95 5845.13,5875.15 0,3244.21 -2617.48,5875.15 -5845.13,5875.15z"/>
    <path id="_1" class="fil3" d="M4024.53 10095.26l123.06 0 0 0 7.53 299.17 22.34 295.2 36.79 290.9 50.86 286.23 64.59 281.2 77.95 275.83 90.93 270.07 103.57 263.95 115.83 257.48 127.74 250.65 139.28 243.45 150.45 235.86 161.27 227.93 171.72 219.62 181.81 210.96 191.52 201.92 200.89 192.51 209.88 182.75 218.5 172.6 226.77 162.09 234.66 151.23 242.19 139.99 249.37 128.39 256.17 116.43 262.6 104.1 268.69 91.4 274.42 78.34 279.76 64.93 284.77 51.12 289.41 36.98 293.69 22.45 297.64 7.57 0 123.7 -303.84 -7.73 -299.91 -22.93 -295.57 -37.76 -290.85 -52.22 -285.76 -66.31 -280.3 -80.02 -274.45 -93.36 -268.24 -106.34 -261.65 -118.91 -254.69 -131.13 -247.35 -142.97 -239.66 -154.45 -231.57 -165.53 -223.14 -176.26 -214.32 -186.61 -205.13 -196.59 -195.58 -206.18 -185.65 -215.42 -175.36 -224.28 -164.69 -232.77 -153.65 -240.88 -142.24 -248.63 -130.46 -255.99 -118.31 -263 -105.79 -269.61 -92.89 -275.87 -79.61 -281.73 -65.97 -287.24 -51.96 -292.35 -37.57 -297.08 -22.8 -301.44 -7.69 -305.41 0 0zm5906.65 -5937l0 123.7 0 0 -297.64 7.57 -293.69 22.45 -289.41 36.98 -284.77 51.12 -279.76 64.93 -274.42 78.34 -268.69 91.4 -262.6 104.1 -256.17 116.43 -249.37 128.39 -242.19 139.99 -234.66 151.23 -226.77 162.1 -218.51 172.6 -209.87 182.74 -200.89 192.51 -191.52 201.92 -181.81 210.96 -171.72 219.62 -161.27 227.93 -150.45 235.87 -139.28 243.44 -127.74 250.65 -115.83 257.48 -103.57 263.96 -90.93 270.07 -77.95 275.82 -64.59 281.2 -50.86 286.23 -36.79 290.9 -22.34 295.2 -7.53 299.17 -123.06 0 7.69 -305.41 22.8 -301.44 37.57 -297.08 51.96 -292.35 65.97 -287.24 79.61 -281.72 92.89 -275.87 105.79 -269.62 118.31 -263 130.46 -255.99 142.24 -248.62 153.65 -240.89 164.69 -232.77 175.36 -224.28 185.65 -215.42 195.58 -206.18 205.13 -196.59 214.33 -186.6 223.13 -176.26 231.57 -165.54 239.66 -154.45 247.35 -142.97 254.69 -131.13 261.65 -118.91 268.24 -106.34 274.45 -93.36 280.3 -80.02 285.76 -66.31 290.85 -52.22 295.57 -37.76 299.91 -22.93 303.84 -7.73 0 0zm5906.66 5937l-123.06 0 0 0 -7.53 -299.17 -22.34 -295.2 -36.79 -290.9 -50.86 -286.23 -64.59 -281.2 -77.95 -275.82 -90.93 -270.07 -103.56 -263.96 -115.83 -257.48 -127.74 -250.65 -139.28 -243.43 -150.46 -235.88 -161.26 -227.93 -171.72 -219.62 -181.8 -210.96 -191.54 -201.92 -200.89 -192.51 -209.87 -182.74 -218.5 -172.6 -226.77 -162.1 -234.66 -151.23 -242.2 -139.99 -249.36 -128.39 -256.17 -116.43 -262.61 -104.1 -268.69 -91.4 -274.42 -78.34 -279.76 -64.93 -284.78 -51.12 -289.41 -36.98 -293.69 -22.45 -297.64 -7.57 0 -123.7 303.84 7.73 299.91 22.93 295.57 37.76 290.86 52.22 285.76 66.31 280.3 80.02 274.45 93.36 268.25 106.34 261.65 118.91 254.68 131.13 247.36 142.97 239.66 154.45 231.57 165.54 223.14 176.26 214.31 186.6 205.13 196.59 195.58 206.18 185.66 215.42 175.36 224.28 164.68 232.77 153.66 240.88 142.24 248.63 130.46 255.99 118.31 263 105.78 269.62 92.89 275.87 79.61 281.72 65.97 287.24 51.96 292.35 37.57 297.08 22.8 301.44 7.69 305.41 0 0zm-5906.66 5937l0 -123.7 0 0 297.64 -7.57 293.69 -22.45 289.41 -36.98 284.78 -51.12 279.76 -64.93 274.42 -78.34 268.69 -91.4 262.61 -104.1 256.17 -116.43 249.36 -128.39 242.2 -139.99 234.66 -151.23 226.77 -162.09 218.5 -172.6 209.87 -182.75 200.89 -192.51 191.54 -201.92 181.8 -210.96 171.72 -219.62 161.26 -227.93 150.46 -235.87 139.28 -243.44 127.74 -250.65 115.83 -257.48 103.56 -263.95 90.93 -270.07 77.95 -275.83 64.59 -281.2 50.86 -286.23 36.79 -290.9 22.34 -295.2 7.53 -299.17 123.06 0 -7.69 305.41 -22.8 301.44 -37.57 297.08 -51.96 292.35 -65.97 287.24 -79.61 281.73 -92.89 275.87 -105.78 269.61 -118.31 263 -130.46 255.99 -142.24 248.64 -153.66 240.87 -164.68 232.77 -175.36 224.28 -185.66 215.42 -195.58 206.18 -205.13 196.59 -214.31 186.61 -223.14 176.26 -231.57 165.53 -239.66 154.45 -247.36 142.97 -254.68 131.13 -261.65 118.91 -268.25 106.34 -274.45 93.36 -280.3 80.02 -285.76 66.31 -290.86 52.22 -295.57 37.76 -299.91 22.93 -303.84 7.73 0 0z"/>
   </g>
   <path class="fil0" d="M18944.04 6976.57c332.64,987.77 502.42,2025.81 502.42,3069.7 0,5287.22 -4265.83,9574.98 -9526.03,9574.98 -5260.2,0 -9526.04,-4287.76 -9526.04,-9574.98 0,-5287.22 4265.84,-9574.97 9526.04,-9574.97 3737.84,0 7131.45,2198.81 8674.74,5619.2"/>
   <path class="fil0" d="M16849.02 13890.51c-1619.89,2960.82 -4936.8,4558.76 -8248.33,3971.86 -4272.12,-757.15 -7125.83,-4853.41 -6372.63,-9147.35 753.23,-4293.93 4828.6,-7162.14 9100.73,-6404.98 4272.12,757.13 7125.83,4853.39 6372.6,9147.33 -149.37,851.58 -438.03,1675.53 -852.37,2433.14z"/>
   <path class="fil4" d="M17409.77 7435.18c271.75,831.2 450,1753.45 450,2649.27 0,845.89 -146.1,1753.45 -397.4,2564.1 487.99,173.29 981.82,352.45 1458.12,531.61 333.12,-972.18 525.98,-2085.34 525.98,-3133.89 0,-1030.93 -207.47,-2129.41 -534.74,-3119.21l-1501.96 508.12z"/>
   <path class="fil4" d="M3670.06 5364.51c-485.07,-346.57 -940.92,-678.47 -1402.61,-1007.42 1776.64,-2396.68 4628.61,-3885.8 7652.98,-3885.8 3094.5,0 6028.29,1539.05 7796.16,4062.02 -444.16,317.21 -891.24,643.23 -1358.78,957.5 -1455.2,-2126.47 -3915.61,-3365.93 -6478.29,-3316 -2472.1,47 -4760.1,1248.28 -6209.46,3189.7z"/>
   <path class="fil4" d="M2521.67 12613.3l-1607.15 522.81c-300.98,-989.81 -520.13,-2017.8 -520.13,-3089.84 0,-1121.98 227.92,-2343.82 622.4,-3412.92l1610.08 625.6c-333.12,884.07 -514.29,1891.5 -502.6,2846.06 8.76,860.57 93.51,1732.89 397.4,2508.29z"/>
   <path class="fil4" d="M17611.39 15647.33c-1773.71,2446.62 -4713.34,3973.91 -7690.96,3973.91 -3033.14,0 -5972.77,-1547.85 -7714.34,-3976.84l1329.55 -1001.56c1458.13,2055.98 3851.33,3336.56 6349.72,3345.37 2860.74,11.75 5064,-1365.76 6454.92,-3292.5l1271.11 951.62z"/>
   <path class="fil0" d="M9812.31 17770.86c-4179.12,0 -7568.24,-3406.52 -7568.24,-7607.11 0,-4200.58 3389.12,-7607.1 7568.24,-7607.1 4179.11,0 7568.25,3406.52 7568.25,7607.1 0,4200.59 -3389.14,7607.11 -7568.25,7607.11z"/>
   <path class="fil0" d="M9958.32 16184.82c-3362.7,0 -6089.74,-2741.05 -6089.74,-6121.02 0,-3379.99 2727.04,-6121.04 6089.74,-6121.04 3362.71,0 6089.75,2741.05 6089.75,6121.04 0,3379.97 -2727.04,6121.02 -6089.75,6121.02z"/>
   <path class="fil0" d="M9815.24 17597.57c-4051.64,0 -7337.39,-3302.63 -7337.39,-7375.08 0,-4072.46 3285.75,-7375.09 7337.39,-7375.09 4051.64,0 7337.39,3302.63 7337.39,7375.09 0,4072.45 -3285.75,7375.08 -7337.39,7375.08z"/>
   <path class="fil5" d="M10009.08 16160.79c149.21,37.49 267.34,0 404.11,0l118.13 1587.25c-161.65,0 -391.68,37.49 -522.24,37.49l0 -1624.74zm68.39 199.97c80.82,0 161.65,0 261.12,-31.25l93.25 1262.3c-93.25,-18.74 -254.9,0 -354.37,0l0 -1231.05z"/>
   <path class="fil5" d="M12073.16 15810.84c130.55,-56.24 248.68,-118.73 379.24,-168.72l652.79 1449.77c-136.77,56.24 -348.16,149.98 -478.71,199.97l-553.32 -1481.02zm130.55 106.24c80.83,0 167.87,-43.75 248.69,-99.99l503.58 1137.32c-80.82,43.75 -248.68,118.73 -329.5,137.48l-422.77 -1174.81z"/>
   <path class="fil5" d="M12595.39 15604.62c111.91,-81.23 211.38,-143.72 323.29,-193.72l783.35 1374.79c-80.82,68.74 -304.64,168.72 -441.41,243.71l-665.23 -1424.78zm111.91 118.74c87.04,-31.25 167.86,-81.24 248.68,-143.73l615.49 1087.33c-118.12,37.49 -230.03,149.97 -341.94,187.47l-522.23 -1131.07z"/>
   <path class="fil5" d="M13067.89 15348.41c99.47,-62.49 211.38,-131.23 329.5,-212.46l864.18 1293.54c-93.26,62.5 -310.86,212.47 -397.89,274.96l-795.79 -1356.04zm118.12 99.99c74.61,-56.24 130.56,-99.99 211.38,-162.48l727.4 1043.59c-80.82,31.25 -230.03,143.73 -304.63,199.97l-634.15 -1081.08z"/>
   <path class="fil5" d="M13453.35 15054.71c136.77,-87.49 248.68,-168.72 329.5,-231.21l1013.39 1206.06c-105.69,87.48 -298.42,212.46 -397.9,331.2l-944.99 -1306.05zm167.86 81.24c80.82,-56.24 124.34,-81.24 211.38,-168.73l814.44 968.6c-99.48,49.99 -230.03,181.22 -310.86,224.97l-714.96 -1024.84z"/>
   <path class="fil5" d="M13894.76 14692.27c118.13,-81.24 198.95,-156.23 310.86,-249.96l1075.55 1137.32c-80.82,112.48 -273.55,274.95 -360.59,337.45l-1025.82 -1224.81zm167.86 99.98c80.82,-37.49 105.69,-137.48 198.95,-181.22l851.74 912.36c-80.82,56.24 -192.73,168.72 -273.55,212.46l-777.14 -943.6z"/>
   <path class="fil5" d="M14305.09 14336.07c93.25,-68.74 180.29,-181.22 261.12,-281.2l1175.03 1043.58c-74.61,118.73 -248.69,293.71 -360.6,399.94l-1075.55 -1162.32zm149.21 62.49c43.52,-31.24 111.91,-93.73 192.73,-168.72l926.34 824.87c-80.82,81.24 -192.73,193.72 -254.9,274.96l-864.17 -931.11z"/>
   <path class="fil5" d="M14647.03 13942.38c111.91,-99.98 192.73,-199.96 273.55,-293.7l1224.77 931.1c-55.96,112.49 -211.39,306.21 -279.77,424.94l-1218.55 -1062.34zm155.43 50c74.6,-50 118.12,-112.49 167.86,-187.47l1007.16 737.38c-62.17,68.74 -155.42,212.47 -230.03,299.95l-944.99 -849.86z"/>
   <path class="fil5" d="M14975.66 13523.8c84.74,-108.67 143.18,-217.34 213.31,-334.83l2910.41 1747.58c-55.52,108.68 -265.91,443.51 -336.04,569.8l-2787.68 -1982.55zm184.09 47c46.76,-67.56 87.66,-138.05 137.34,-226.16l2635.73 1615.41c-64.28,79.3 -225,308.4 -286.36,384.76l-2486.71 -1774.01z"/>
   <path class="fil5" d="M15288.32 13030.37c58.45,-132.17 122.73,-240.84 181.17,-364.2l3044.83 1500.86c-49.67,120.42 -300.97,496.37 -362.34,631.48l-2863.66 -1768.14zm172.41 23.5c49.67,-73.43 78.89,-143.92 119.8,-234.97l2758.47 1354.01c-55.52,85.17 -233.77,387.69 -280.53,467l-2597.74 -1586.04z"/>
   <path class="fil5" d="M15522.09 12542.81c64.29,-120.42 108.12,-243.78 163.64,-364.2l3167.55 1160.16c-40.9,123.36 -210.39,575.67 -265.91,719.59l-3065.28 -1515.55zm172.41 11.75c40.91,-73.43 70.13,-149.79 105.19,-240.84l2881.19 1048.54c-55.52,91.05 -172.4,455.26 -216.23,537.49l-2770.15 -1345.19z"/>
   <path class="fil5" d="M15722.58 12042.68c43.52,-112.48 99.48,-256.21 111.91,-368.69l1510.75 424.93c-18.65,112.49 -62.17,331.2 -118.12,468.68l-1504.54 -524.92zm174.08 0c37.3,-81.23 55.96,-174.97 80.82,-256.21l1206.12 324.95c-31.09,99.99 -68.39,262.46 -130.56,337.45l-1156.38 -406.19z"/>
   <path class="fil5" d="M15878.01 11505.27c37.3,-118.73 55.95,-243.72 74.61,-393.69l1560.48 312.45c-18.65,131.23 -87.04,362.44 -99.47,506.17l-1535.62 -424.93zm155.43 -18.75c55.95,-62.49 55.95,-162.48 55.95,-256.21l1237.2 224.96c-6.22,99.99 -43.52,262.46 -80.82,356.2l-1212.33 -324.95z"/>
   <path class="fil5" d="M15977.48 10961.6c37.31,-124.98 37.31,-237.46 55.96,-368.69l1560.49 156.23c0,87.48 -37.31,343.69 -37.31,512.41l-1579.14 -299.95zm192.73 -24.99c18.66,-74.99 18.66,-187.47 18.66,-249.97l1237.19 99.99c-12.43,112.48 -31.08,281.21 -31.08,381.19l-1224.77 -231.21z"/>
   <path class="fil5" d="M16033.44 10436.68c24.87,-137.47 24.87,-274.95 24.87,-406.18l1579.14 18.74c0,112.49 -12.44,381.2 0,506.18l-1604.01 -118.74zm174.08 -62.49c18.65,-74.98 0,-156.22 0,-256.21l1230.98 0c0,99.99 0,256.21 0,356.2l-1230.98 -99.99z"/>
   <path class="fil5" d="M16033.44 9918.02c0,-143.73 0,-256.21 -18.65,-374.95l1579.14 -149.97c0,131.23 31.08,362.44 43.52,524.92l-1604.01 0zm174.08 -43.75c18.65,-99.98 0,-168.72 -18.65,-287.45l1237.19 -106.24c0,99.99 12.44,256.21 12.44,356.2l-1230.98 37.49z"/>
   <path class="fil5" d="M15996.14 9411.84c0,-143.72 -18.66,-274.95 -43.52,-406.18l1560.48 -256.21c18.66,106.23 43.52,349.94 80.83,518.67l-1597.79 143.72zm174.07 -99.98c18.66,-93.73 -24.86,-149.98 -43.52,-243.71l1218.55 -224.97c0,99.99 49.74,256.21 49.74,356.2l-1224.77 112.48z"/>
   <path class="fil5" d="M15933.96 8886.93c-18.65,-137.48 -55.95,-274.96 -68.38,-424.94l1498.31 -356.19c49.74,106.23 74.61,356.19 130.56,506.17l-1560.49 274.96zm155.43 -112.49c0,-81.23 -55.95,-162.47 -74.6,-231.21l1212.33 -337.45c18.65,99.99 74.6,256.21 93.25,374.94l-1230.98 193.72z"/>
   <path class="fil5" d="M15803.41 8380.76c-37.31,-149.98 -80.83,-262.46 -99.48,-387.44l1461.02 -512.42c49.73,112.48 118.12,343.69 180.29,512.42l-1541.83 387.44zm130.55 -93.74c0,-99.98 -37.3,-168.72 -68.38,-268.71l1150.16 -424.93c18.65,118.73 99.47,268.71 136.77,399.94l-1218.55 293.7z"/>
   <path class="fil5" d="M15638.98 7890.43c-46.76,-135.11 -102.28,-252.59 -154.88,-375.95l3112.04 -1371.63c58.44,108.67 189.94,467 260.07,610.92l-3217.23 1136.66zm125.65 -120.42c-5.85,-79.3 -61.37,-149.8 -102.28,-243.78l2808.14 -1262.96c26.3,105.74 154.87,393.57 184.09,490.5l-2889.95 1016.24z"/>
   <path class="fil5" d="M15440.27 7396.99c-52.59,-132.17 -116.88,-246.71 -175.32,-367.13l2960.08 -1624.23c64.29,105.74 245.46,449.38 324.36,590.36l-3109.12 1401zm119.81 -129.23c-11.69,-76.36 -70.13,-143.92 -116.88,-234.97l2682.48 -1471.49c32.15,105.74 166.56,320.15 201.63,414.13l-2767.23 1292.33z"/>
   <path class="fil5" d="M15186.05 6935.87c-64.29,-126.3 -143.18,-232.03 -213.31,-346.58l2822.75 -1879.75c143.18,132.17 318.5,472.87 382.79,581.55l-2992.23 1644.78zm105.2 -140.98c-20.46,-73.43 -81.82,-135.11 -140.26,-220.29l2553.91 -1703.52c40.91,102.8 219.16,340.71 265.91,431.76l-2679.56 1492.05z"/>
   <path class="fil5" d="M14895.71 6487.3c-55.95,-112.48 -167.86,-193.72 -248.68,-312.45l1249.63 -981.09c80.82,81.23 192.73,293.7 310.86,424.93l-1311.81 868.61zm74.61 -131.23c-12.44,-81.23 -74.61,-137.47 -130.56,-212.46l963.65 -799.88c62.17,112.48 149.21,231.22 211.38,312.45l-1044.47 699.89z"/>
   <path class="fil5" d="M14566.21 6099.86c-80.83,-118.73 -186.52,-212.46 -261.12,-312.45l1137.73 -1081.08c93.25,81.24 261.11,274.96 360.59,356.2l-1237.2 1037.33zm80.82 -168.72c-55.96,-81.24 -99.48,-137.48 -174.08,-199.97l889.04 -881.11c68.39,93.73 174.08,212.47 261.12,299.95l-976.08 781.13z"/>
   <path class="fil5" d="M14205.62 5699.93c-111.91,-118.74 -211.39,-193.72 -292.21,-293.71l1044.47 -1143.57c111.91,62.49 267.34,249.96 385.46,331.2l-1137.72 1106.08zm55.95 -162.48c-37.3,-81.24 -93.26,-131.23 -186.51,-193.72l820.65 -931.1c62.17,99.98 174.08,193.72 273.55,256.21l-907.69 868.61z"/>
   <path class="fil5" d="M13832.59 5324.99c-130.56,-93.74 -211.38,-174.98 -323.29,-262.46l963.65 -1224.81c93.26,56.24 285.99,212.46 404.11,274.96l-1044.47 1212.31zm31.09 -174.98c-31.09,-56.24 -118.13,-87.48 -192.73,-149.97l746.05 -1012.35c68.38,81.24 230.03,174.98 310.85,237.47l-864.17 924.85z"/>
   <path class="fil5" d="M13397.39 5018.78c-118.12,-81.23 -211.38,-156.22 -329.5,-231.21l882.82 -1312.29c93.26,49.99 273.56,199.96 422.77,281.2l-976.09 1262.3zm43.52 -168.72c-43.52,-62.49 -124.34,-99.98 -211.38,-143.73l665.23 -1062.33c55.95,81.24 198.95,156.22 310.86,231.21l-764.71 974.85z"/>
   <path class="fil5" d="M12968.42 4750.08c-130.56,-81.24 -242.47,-143.73 -360.6,-212.47l708.75 -1399.78c124.34,62.49 335.72,174.97 466.28,237.46l-814.43 1374.79zm0 -193.72c-49.74,-25 -130.56,-81.24 -192.73,-118.74l540.88 -1124.82c80.82,81.24 236.25,149.98 304.64,199.97l-652.79 1043.59z"/>
   <path class="fil5" d="M12452.4 4512.61c-118.13,-87.48 -230.03,-99.98 -360.59,-168.72l634.14 -1437.28c111.91,37.5 341.94,143.73 503.58,193.72l-777.13 1412.28zm0 -168.72c-37.31,-62.49 -118.13,-81.24 -211.38,-118.73l484.93 -1156.07c80.82,49.99 242.47,131.23 341.94,168.72l-615.49 1106.08z"/>
   <path class="fil5" d="M12010.98 4281.4c-161.64,-56.24 -254.9,-81.24 -404.11,-131.23l484.94 -1493.52c130.56,37.5 360.59,118.73 503.58,156.23l-584.41 1468.52zm0 -168.72c-118.12,-43.75 -174.07,-62.5 -254.9,-81.24l335.73 -1206.06c111.9,62.49 279.77,99.98 360.59,143.72l-441.42 1143.58z"/>
   <path class="fil5" d="M11507.4 4112.68c-149.21,-43.75 -273.55,-43.75 -404.11,-81.24l323.29 -1512.27c142.99,0 391.67,43.75 522.23,93.74l-441.41 1499.77zm-49.74 -143.73c-62.17,-68.74 -142.99,-68.74 -242.46,-68.74l242.46 -1224.81c111.91,56.24 279.77,56.24 379.25,99.98l-379.25 1193.57z"/>
   <path class="fil5" d="M10987.89 4032.61c-167.5,-17.72 -282.11,-44.3 -387.9,-62.02l193.95 -1550.7c114.6,8.86 370.26,44.31 502.5,44.31l-308.55 1568.41zm-70.53 -159.5c-44.08,-35.44 -158.68,-35.44 -238.03,-35.44l141.06 -1276c96.97,53.17 282.1,53.17 379.08,97.47l-282.11 1213.97z"/>
   <path class="fil5" d="M10485.38 3970.59c-149.86,-17.73 -264.47,-17.73 -405.52,-17.73l61.71 -1586.13c114.6,0 343.81,0 502.5,17.72l-158.69 1586.14zm-70.52 -168.36c-61.71,-44.31 -158.69,-17.73 -238.03,-17.73l0 -1258.27c96.98,17.72 290.92,17.72 370.27,17.72l-132.24 1258.28z"/>
   <path class="fil5" d="M9929.99 3952.86c-149.87,-35.44 -273.29,0 -405.53,0l-35.26 -1568.41c132.23,-17.72 361.45,-17.72 520.13,-17.72l-79.34 1586.13zm-79.34 -150.63c-70.53,-44.31 -149.87,-17.73 -229.22,-17.73l-79.34 -1240.55c114.61,0 273.29,-17.72 352.63,0l-44.07 1258.28z"/>
   <path class="fil5" d="M9392.22 3970.59c-114.6,0 -255.66,17.72 -370.26,44.3l-202.77 -1550.69c132.24,-35.45 361.45,-44.31 511.32,-79.75l61.71 1586.14zm-79.34 -132.92c-52.89,-35.44 -132.24,0 -246.84,17.72l-158.69 -1240.55c114.61,0 273.29,-53.17 370.27,-53.17l35.26 1276z"/>
   <path class="fil5" d="M8889.72 4050.34c-132.24,17.72 -246.84,62.02 -379.08,62.02l-308.55 -1515.25c88.16,-35.44 343.81,-79.75 476.05,-97.47l211.58 1550.7zm-79.34 -132.92c-88.16,-17.72 -167.5,0 -246.84,53.17l-273.29 -1240.56c79.34,0 255.65,-35.44 352.63,-53.17l167.5 1240.56z"/>
   <path class="fil5" d="M8369.59 4165.53c-114.61,35.44 -246.85,62.03 -379.08,115.19l-449.61 -1506.38c114.61,-44.31 326.19,-115.2 502.5,-159.5l326.19 1550.69zm-79.34 -115.19c-88.16,-17.73 -167.51,17.72 -246.85,62.02l-387.89 -1187.38c79.34,-17.73 255.66,-70.89 352.63,-97.48l282.11 1222.84z"/>
   <path class="fil5" d="M7911.17 4298.45c-141.06,62.02 -255.66,115.19 -387.9,159.5l-634.74 -1435.5c132.24,-53.17 326.19,-132.92 484.87,-194.95l537.77 1470.95zm-132.24 -97.48c-79.34,0 -158.69,26.59 -238.03,79.75l-520.13 -1143.08c114.6,-17.72 238.02,-88.61 326.18,-132.91l431.98 1196.24z"/>
   <path class="fil5" d="M7408.66 4528.84c-114.6,26.58 -229.21,106.33 -361.45,177.22l-758.16 -1338.03c114.61,-70.89 308.56,-203.8 449.61,-283.55l670 1444.36zm-149.87 -106.34c-44.07,0 -123.42,53.17 -193.94,115.2l-652.37 -1063.34c96.97,-26.58 211.58,-141.77 326.18,-177.22l520.13 1125.36z"/>
   <path class="fil5" d="M6932.61 4750.36c-141.05,70.89 -220.4,150.64 -335,194.95l-881.58 -1284.86c96.97,-79.75 273.29,-194.95 440.79,-283.56l775.79 1373.47zm-141.05 -115.19c-79.35,35.44 -132.24,70.89 -211.58,150.64l-714.09 -1027.89c96.98,-35.44 220.4,-132.92 290.93,-194.94l634.74 1072.19z"/>
   <path class="fil5" d="M6500.63 5033.92c-114.6,79.75 -229.21,159.5 -343.81,239.25l-943.3 -1222.83c79.35,-62.03 255.66,-212.67 387.9,-292.42l899.21 1276zm-185.13 -88.61c-44.08,35.44 -114.6,88.61 -158.68,150.64l-811.06 -948.14c114.61,-35.45 211.58,-177.22 290.92,-230.39l678.82 1027.89z"/>
   <path class="fil5" d="M6077.47 5370.64c-114.6,88.61 -211.58,168.36 -308.55,283.56l-1075.53 -1125.36c96.97,-88.62 255.66,-248.12 370.26,-381.03l1013.82 1222.83zm-167.5 -62.03c-61.71,17.73 -114.6,79.75 -176.31,150.64l-881.58 -850.66c96.97,-70.89 167.5,-194.95 264.47,-265.84l793.42 965.86z"/>
   <path class="fil5" d="M5680.76 5733.95c-114.6,79.75 -176.31,194.94 -273.29,274.69l-1172.5 -1027.89c114.6,-79.75 246.84,-274.69 361.45,-372.16l1084.34 1125.36zm-158.68 -62.03c-61.71,26.58 -114.61,115.19 -167.5,177.22l-952.11 -788.64c96.97,-79.75 176.31,-212.66 255.66,-274.69l863.95 886.11z"/>
   <path class="fil5" d="M5335.66 6089.98c-96.43,102.8 -172.41,214.41 -251.31,320.15l-1250.65 -904.63c64.28,-96.93 195.78,-290.78 295.13,-420.01l1206.83 1004.49zm-160.72 -26.43c-70.13,29.37 -102.27,108.67 -143.18,187.97l-1022.74 -707.84c75.98,-76.37 143.19,-211.47 207.47,-287.84l958.45 807.71z"/>
   <path class="fil5" d="M5020.07 6501.18c-87.66,108.67 -157.79,226.15 -233.77,340.7l-2977.62 -1797.51c134.42,-202.66 230.85,-352.45 350.65,-528.68l2860.74 1985.49zm-160.72 -11.75l-2626.96 -1785.76c-52.6,70.49 -163.64,249.65 -222.08,317.2l2720.47 1668.28c55.52,-82.24 67.21,-149.79 128.57,-199.72z"/>
   <path class="fil5" d="M4724.94 6941.74c-78.9,114.55 -137.34,240.85 -195.78,358.33l-3141.26 -1497.93c58.44,-129.23 265.91,-484.62 347.73,-625.6l2989.31 1765.2zm-178.25 0c-70.13,44.06 -81.82,126.3 -113.96,208.54l-2837.36 -1392.19c61.36,-76.37 157.79,-305.46 195.78,-381.83l2755.54 1565.48z"/>
   <path class="fil5" d="M4476.56 7399.93c-64.29,123.36 -105.2,255.53 -151.95,381.83l-3243.53 -1298.21c78.9,-199.72 195.78,-443.5 260.07,-584.48l3135.41 1500.86zm-160.72 8.81c-64.28,49.93 -70.13,135.11 -99.35,214.41l-2936.71 -1195.4c52.6,-70.49 131.5,-264.34 169.48,-343.64l2866.58 1324.63z"/>
   <path class="fil5" d="M4257.4 7896.3c-58.44,126.3 -93.51,261.41 -128.57,393.58l-1475.66 -511.06c35.06,-123.36 102.27,-343.64 166.56,-493.44l1437.67 610.92zm-160.71 20.56c-61.37,49.93 -61.37,135.11 -87.67,217.35l-1186.37 -387.7c64.29,-99.86 84.74,-226.16 122.73,-326.02l1151.31 496.37z"/>
   <path class="fil5" d="M4102.73 8383.42c-44.08,159.5 -96.97,283.55 -114.61,398.75l-1507.5 -363.31c26.45,-194.94 44.08,-372.16 114.6,-505.08l1507.51 469.64zm-141.05 35.44c-52.9,79.75 -52.9,159.5 -79.35,221.53l-1216.58 -256.97c26.45,-141.78 61.71,-230.39 70.53,-327.86l1225.4 363.3z"/>
   <path class="fil5" d="M3961.68 8923.94c0,141.78 0,274.7 0,407.62l-1578.03 -194.95c0,-132.92 35.26,-363.3 61.71,-522.8l1516.32 310.13zm-158.69 35.45c-17.63,97.47 -17.63,177.22 -17.63,239.25l-1234.21 -132.92c17.63,-150.64 26.44,-221.53 44.07,-354.44l1207.77 248.11z"/>
   <path class="fil5" d="M3908.78 9446.75c0,132.92 0,274.69 0,425.33l-1560.4 -70.89c0,-124.05 0,-354.44 35.27,-531.66l1525.13 177.22zm-141.05 79.75c-8.82,88.61 0,132.92 0,212.67l-1260.66 -35.45c-8.82,-115.19 8.81,-212.66 8.81,-336.72l1251.85 159.5z"/>
   <path class="fil5" d="M3882.33 10005c0,124.06 0,274.69 26.45,425.33l-1569.21 62.03c-17.64,-159.5 -35.27,-389.89 -8.82,-575.97l1551.58 88.61zm-149.86 97.47c-35.27,44.31 0,124.06 0,212.67l-1234.22 79.75c44.08,-115.2 0,-265.83 0,-363.31l1234.22 70.89z"/>
   <path class="fil5" d="M3908.78 10527.81c0,141.77 17.63,256.97 52.9,407.61l-1542.77 177.22c-35.26,-115.2 -70.53,-327.86 -70.53,-505.08l1560.4 -79.75zm-141.05 97.47c-52.9,62.03 0,141.78 17.63,230.39l-1251.85 150.63c0,-97.47 8.82,-221.52 -17.63,-318.99l1251.85 -62.03z"/>
   <path class="fil5" d="M3961.68 11077.19c0,150.64 44.08,283.56 79.34,398.75l-1525.14 336.73c-17.63,-115.2 -88.16,-327.87 -96.97,-487.37l1542.77 -248.11zm-132.24 97.48c0,97.47 17.63,177.22 35.26,256.97l-1234.21 274.69c0,-115.19 -35.27,-230.39 -52.9,-345.58l1251.85 -186.08z"/>
   <path class="fil5" d="M4058.7 11626.43c32.14,123.36 87.66,264.34 149.03,381.83l-1490.28 531.61c-40.9,-138.04 -122.72,-355.39 -157.79,-531.61l1499.04 -381.83zm-108.12 111.61c-14.61,70.49 35.07,138.05 70.13,217.35l-1168.84 461.12c-8.77,-123.35 -78.9,-264.34 -116.88,-373.01l1215.59 -305.46z"/>
   <path class="fil5" d="M4225.26 12163.92c46.75,120.42 113.96,255.53 184.09,364.2l-3185.09 1433.31c-43.83,-120.42 -204.54,-475.81 -251.3,-637.35l3252.3 -1160.16zm-93.51 120.42c-11.69,70.5 46.75,138.05 90.59,208.54l-2939.64 1292.33c-8.76,-96.93 -99.35,-320.15 -140.26,-405.32l2989.31 -1095.55z"/>
   <path class="fil5" d="M4435.65 12672.04c61.36,111.61 146.1,237.91 230.84,340.71l-3056.51 1709.4c-58.44,-114.55 -236.69,-437.63 -300.98,-607.99l3126.65 -1442.12zm-75.98 132.17c35.07,70.49 64.29,129.24 113.97,196.79l-2749.7 1524.36c-84.74,-52.87 -216.23,-308.4 -230.84,-375.95l2866.57 -1345.2z"/>
   <path class="fil5" d="M4704.48 13156.67c67.21,105.73 157.8,226.15 251.3,320.14l-2881.19 1991.36c-131.49,-187.97 -280.52,-452.31 -368.18,-607.98l2998.07 -1703.52zm-67.21 138.04c29.22,70.49 90.59,123.36 146.11,185.04l-2653.27 1821.01c-64.28,-73.43 -213.31,-302.53 -239.61,-408.26l2746.77 -1597.79z"/>
   <path class="fil5" d="M5016.76 13629.93c62.18,118.74 155.43,212.47 254.9,318.7l-1218.54 974.85c-80.83,-93.73 -211.38,-256.21 -323.29,-424.93l1286.93 -868.62zm-55.95 149.98c0,62.49 68.39,137.48 130.56,181.22l-926.35 824.87c-55.95,-93.73 -161.64,-206.22 -242.46,-306.2l1038.25 -699.89z"/>
   <path class="fil5" d="M5346.27 14054.87c62.17,99.98 192.73,212.46 292.2,281.2l-1119.07 1093.58c-93.26,-99.98 -248.69,-249.96 -348.16,-374.94l1175.03 -999.84zm-37.3 149.97c55.95,87.49 99.47,112.49 167.86,162.48l-882.83 918.6c-49.73,-106.23 -180.29,-206.21 -242.46,-281.2l957.43 -799.88z"/>
   <path class="fil5" d="M5731.73 14442.31c118.12,93.73 211.38,212.46 310.85,306.2l-1038.25 1156.07c-99.47,-87.49 -292.2,-212.47 -391.68,-343.7l1119.08 -1118.57zm-31.09 187.47c68.39,62.49 93.26,118.73 167.87,162.47l-802.01 943.6c-62.17,-93.73 -180.29,-156.22 -273.55,-237.46l907.69 -868.61z"/>
   <path class="fil5" d="M6135.84 14792.25c80.82,106.23 180.3,174.97 329.51,262.46l-926.35 1262.3c-93.26,-74.99 -323.29,-187.47 -422.76,-312.45l1019.6 -1212.31zm-49.74 174.97c68.39,87.49 111.91,112.49 205.17,168.73l-727.4 1012.34c-43.52,-62.49 -192.73,-143.73 -273.55,-231.21l795.78 -949.86z"/>
   <path class="fil5" d="M6546.17 15135.95c111.9,81.23 192.73,131.23 341.94,193.72l-783.36 1337.29c-118.12,-62.49 -310.85,-174.97 -447.63,-274.96l889.05 -1256.05zm-37.31 131.23c74.61,93.73 118.13,124.98 205.17,143.72l-627.93 1081.09c-62.17,-43.75 -155.42,-131.23 -273.55,-193.72l696.31 -1031.09z"/>
   <path class="fil5" d="M6987.58 15410.9c111.91,87.49 242.47,112.49 360.59,168.73l-671.44 1418.53c-99.48,-81.24 -292.21,-143.73 -441.42,-243.72l752.27 -1343.54zm31.09 168.73c80.82,24.99 118.12,62.49 198.94,112.48l-540.88 1162.32c-80.83,-87.49 -192.73,-149.98 -292.21,-212.47l634.15 -1062.33z"/>
   <path class="fil5" d="M7484.95 15660.87c118.12,62.49 248.68,93.73 379.24,149.97l-571.97 1449.77c-149.21,-18.74 -304.64,-187.47 -466.28,-193.72l659.01 -1406.02zm18.65 156.22c37.3,56.24 118.12,99.99 230.03,118.73l-441.41 1137.32c-111.91,0 -230.03,-74.98 -360.59,-156.22l571.97 -1099.83z"/>
   <path class="fil5" d="M7988.53 15873.33c99.47,31.25 248.68,62.49 379.24,93.74l-453.84 1474.77c-143,0 -310.86,-99.99 -503.59,-149.98l578.19 -1418.53zm18.65 131.23c80.82,0 167.86,43.74 230.03,81.24l-323.28 1193.56c-118.13,-49.99 -261.12,-87.48 -348.16,-112.48l441.41 -1162.32z"/>
   <path class="fil5" d="M8485.9 16004.56c111.91,43.74 230.03,43.74 385.46,112.48l-323.29 1518.52c-118.13,0 -348.16,-62.49 -503.59,-131.23l441.42 -1499.77zm24.87 143.73c87.04,68.74 130.55,68.74 230.03,68.74l-230.03 1224.81c-80.83,-43.75 -217.6,-43.75 -335.73,-81.24l335.73 -1212.31z"/>
   <path class="fil5" d="M8989.48 16129.54c130.56,18.75 273.55,18.75 385.46,18.75l-142.99 1568.5c-111.91,-31.24 -341.94,-31.24 -509.8,-62.49l267.33 -1524.76zm43.52 149.98c68.39,37.49 149.21,18.75 230.03,18.75l-80.82 1256.05c-118.12,-49.99 -248.68,-37.5 -360.59,-49.99l211.38 -1224.81z"/>
   <path class="fil5" d="M9486.85 16148.29c118.12,0 310.85,49.99 422.76,12.5l-55.95 1587.25c-155.43,-18.75 -348.16,37.49 -516.02,-18.75l149.21 -1581zm80.82 168.72c68.39,43.75 130.56,43.75 230.03,12.5l0 1262.3c-111.91,-37.49 -248.68,-18.74 -360.59,-18.74l130.56 -1256.06z"/>
   <path class="fil5" d="M11569.57 15967.07c130.56,-49.99 267.34,-62.49 379.24,-112.49l534.67 1487.27c-111.9,56.24 -341.94,99.99 -472.5,162.48l-441.41 -1537.26zm80.82 149.97c105.69,0 198.95,-31.24 279.77,-87.48l441.42 1162.32c-111.91,37.49 -279.77,87.48 -360.6,99.98l-360.59 -1174.82z"/>
   <path class="fil5" d="M10518.88 16160.79c136.78,12.5 267.34,-6.25 379.25,-31.25l285.98 1537.26c-149.21,31.25 -391.67,74.99 -522.23,93.74l-143 -1599.75zm105.69 156.22c55.96,25 136.78,6.25 242.47,-12.5l198.95 1212.31c-80.82,12.5 -254.9,43.75 -360.59,62.49l-80.83 -1262.3z"/>
   <path class="fil5" d="M11034.9 16085.8c130.56,0 223.82,-37.5 391.68,-81.24l391.67 1512.26c-136.77,56.25 -391.67,118.74 -522.23,137.48l-261.12 -1568.5zm87.04 156.22c74.61,0 174.08,-24.99 273.55,-43.74l304.64 1199.81c-93.26,6.25 -273.55,43.75 -360.59,74.99l-217.6 -1231.06z"/>
   <path class="fil6" d="M9942.35 14569.42c-2476.01,0 -4483.97,-2018.28 -4483.97,-4507 0,-2488.72 2007.96,-4507 4483.97,-4507 2476,0 4483.96,2018.28 4483.96,4507 0,2488.72 -2007.96,4507 -4483.96,4507z"/>
   <path class="fil7" d="M4460.75 10718.18l-14.67 -234.52c25.53,12.71 50.44,21.48 74.73,26.51 24.23,4.85 55.8,6.02 94.26,3.59l352.12 -22.26c77.32,-4.91 131.54,-21.27 162.47,-49.31 30.91,-28.03 44.62,-71.66 40.91,-130.95 -2.57,-41.02 -11.85,-75.1 -27.57,-101.96 -15.74,-27.08 -37.58,-46.21 -65.39,-57.16 -13.36,-5.32 -28.83,-8.91 -46.18,-10.44 -17.34,-1.67 -42.87,-1.47 -76.78,0.7l-48.72 3.05 -312.65 19.79c-36.31,2.29 -66.48,7.59 -90.7,15.7 -24.26,8.1 -48.66,20.19 -73.19,36.06l-11.45 -182.8c26.86,14.62 52.64,24.75 77.54,30.53 24.91,5.8 56.73,7.59 95.4,5.12l348.54 -22.04c45.36,-2.86 79.41,-3.03 101.95,-0.27 22.74,2.54 43.1,8.03 61.43,16.22 37.68,16.9 67.95,48.42 90.65,94.2 22.48,45.73 35.98,103.19 40.27,171.99 6.42,102.3 -8.09,177.66 -43.47,226.1 -35.59,48.6 -95.87,75.53 -180.88,80.89l-381.49 24.12c-38.69,2.47 -70.01,8.21 -94,17.1 -23.97,8.89 -48.29,22.17 -73.13,40.04zm-22.43 -987.86l25.28 -172.13 587.25 -295.8 -363.84 -54c-38.93,-5.78 -70.89,-7.12 -95.91,-4.01 -25.08,3.32 -51.29,10.46 -78.71,21.66l23.97 -163.09c22.7,18.17 45.32,32.63 67.98,42.99 22.66,10.42 51.66,18.3 87.23,23.6l6.87 1.01 605.51 89.88 -12.93 88.03 -649.08 330.2 413.16 61.31c38.89,5.78 71.09,6.94 96.36,3.66 25.26,-3.28 51.51,-10.81 79,-22.41l-23.98 163.12c-23,-18.69 -46.05,-33.13 -69.29,-43.63 -23.27,-10.27 -54.45,-18.3 -93.36,-24.1l-430.93 -63.95c-38.9,-5.75 -70.87,-7.1 -95.91,-4.02 -25.04,3.34 -51.29,10.48 -78.67,21.68zm139.24 -859.15l50.65 -231.45c21.63,20.24 43.59,36.48 66.05,48.59 22.45,12.05 52.74,22.4 90.82,30.8l425.41 94.01c38.4,8.5 70.48,11.92 95.87,10.46 25.43,-1.53 52.11,-7.02 80.25,-16.26l-50.64 231.47c-22.43,-20.43 -44.92,-36.97 -67.75,-49.35 -22.78,-12.36 -52.7,-22.63 -89.57,-30.76l-425.41 -94.05c-36.51,-8.05 -67.79,-11.3 -93.63,-9.67 -25.82,1.6 -53.16,7.13 -82.05,16.21zm86.71 -440.34l99.71 -243.17c12.79,19.91 22.78,34.12 30.23,42.6 7.33,8.63 14.22,14.28 20.61,16.92 6.03,2.5 21.53,4.85 46.4,7.2 5.03,0.35 8.56,0.54 11.07,0.72l502.97 39.69 -400.43 -355.39c-5.61,-4.7 -11.11,-8.91 -16.51,-12.44 -5.39,-3.52 -10.48,-6.29 -15.23,-8.25 -10.24,-4.25 -30.62,-3.01 -60.99,3.76 -5.22,1.28 -8.5,2.06 -10.41,2.55l70.77 -172.65c10.49,24.55 23.6,47.82 39.36,69.79 15.79,22.02 34.03,43.14 54.8,62.88l499.14 468.71 -37.05 90.38 -680.92 -41.01c-30.19,-1.53 -57.08,-0.02 -80.7,4.39 -23.6,4.4 -47.76,12.22 -72.82,23.32zm364.64 -843.47l252.53 -432.65 145.74 85.94 -139.89 54.32c-12.07,4.62 -22.25,11.08 -30.56,19.04 -8.29,8.27 -18.23,22.18 -29.74,41.92l-5.3 9.08 -49.21 84.29 255.89 150.89 43.7 -74.87c8.5,-14.56 14.29,-27.99 17.36,-39.98 2.82,-11.9 3.33,-27.27 1.19,-46.05l-10.24 -105.29 200.65 118.31 -110.75 50.77c-10.32,4.75 -19.31,10.73 -26.72,17.89 -7.31,7.42 -16.4,20.26 -27.2,38.76l-40.12 68.7 272.25 160.54 59.2 -101.44c7.59,-12.99 12.62,-25.49 15.25,-37.52 2.42,-11.95 2.87,-25.27 1.08,-39.9l-19.72 -170.75 144.59 114.24 -250.23 428.71c-14.39,-25.99 -30.38,-48.08 -48.01,-66.53 -17.73,-18.3 -43.67,-37.5 -77.58,-57.49l-375.7 -221.57c-33.93,-20.01 -63.07,-33.27 -87.41,-39.83 -24.51,-6.36 -51.48,-9.62 -81.05,-9.53zm555.12 -792.83l239.03 197.34 36.76 -44.95c28.44,-34.84 39.67,-68.28 33.74,-100.44 -5.83,-32.31 -29.6,-65.52 -70.97,-99.71 -41.24,-34.02 -77.96,-50.75 -110.22,-50.38 -32.39,0.52 -62.87,18.05 -91.58,53.19l-36.76 44.95zm-160.52 117.63l191.94 -234.87c18.82,-23.02 34.44,-41.22 46.9,-54.59 12.46,-13.36 21.33,-21.72 26.81,-24.67 39.05,-24.01 76.57,-35.24 112.55,-33.52 35.82,1.52 70.07,15.68 102.6,42.54 41.83,34.53 66.09,74.35 72.87,119.55 6.67,45.36 -4.15,94.25 -32.84,146.94l316.98 34.93c28.79,2.66 58.16,3.28 88.64,1.71 30.29,-1.71 60.1,-5.61 89.69,-11.82l-133.86 163.8 -466.23 -56.65 174.11 143.73c30.37,25.11 57.38,42.79 80.7,53.06 23.34,10.25 49.59,17.56 78.83,22.11l-149.66 183.16c-10.75,-28.43 -23.34,-53.46 -38.07,-74.89 -14.7,-21.41 -36.74,-44.21 -65.89,-68.26l-336.6 -277.93c-28.89,-23.85 -55.27,-41.01 -79.04,-51.37 -23.72,-10.33 -50.59,-17.88 -80.43,-22.96zm859.09 -944.6l112.58 118.85 -157.18 13.82c-17.24,1.96 -31.2,5.41 -41.62,9.97 -10.49,4.76 -20.86,11.96 -31.32,21.99 -27.9,26.67 -43.27,55.97 -46.12,87.51 -2.77,31.69 7.33,59.62 30.5,84.09 15.27,16.09 33.35,25.66 54.22,29.02 21.06,3.16 58.33,-0.68 112.13,-12.17l119.29 -25.02c60.15,-13.14 108.61,-15.31 145.43,-6.42 36.84,8.65 70.71,29.42 101.8,62.24 50.7,53.52 71.94,110.52 64.18,171.44 -8.04,60.92 -44.8,122.68 -110.48,185.56 -22.89,21.93 -48.56,42.68 -76.86,62.06 -28.41,19.24 -60.61,38.24 -96.86,56.77l-123.33 -130.2 185.25 -1.17c15.95,0.08 29.68,-2.39 40.99,-7.18 11.31,-5.01 25.68,-15.78 43,-32.39 28.51,-27.23 44.04,-57.23 46.65,-89.62 2.61,-32.4 -8.29,-61.45 -32.55,-87.05 -16.22,-17.15 -35.67,-27.87 -58.37,-31.94 -22.68,-4.33 -56.42,-2.49 -101.06,5.41l-134.11 24.65c-55.21,10.56 -100.65,11.04 -136.75,1.42 -35.96,-9.49 -68.91,-30.08 -98.99,-61.87 -47.46,-50.09 -66.91,-104.63 -58.4,-163.86 8.3,-59.23 44.3,-119.2 107.7,-179.87 20.17,-19.33 41.87,-37.92 65.22,-55.6 23.52,-17.86 48.4,-34.78 75.06,-50.44zm184.8 -166.07l186.81 -144.59c3.64,29.5 10.08,56.11 19.54,79.9 9.49,23.74 26.09,51.24 49.84,82.27l265.79 346.89c23.97,31.29 46.34,54.63 66.76,69.93 20.43,15.25 44.4,28.29 71.84,39.41l-186.79 144.57c-4.13,-30.12 -10.78,-57.33 -20.34,-81.55 -9.55,-24.2 -25.9,-51.41 -48.91,-81.47l-265.79 -346.87c-22.79,-29.74 -44.66,-52.46 -65.5,-67.91 -20.85,-15.47 -45.31,-28.88 -73.25,-40.58zm579.04 -363.33l329.86 583.66 100.7 -57.5c62.37,-35.6 96.07,-87.76 101.08,-156.19 5.15,-68.47 -18.88,-149.6 -71.88,-243.39 -58.2,-102.94 -117.11,-168.21 -176.65,-195.92 -59.42,-27.52 -126.25,-20.21 -200.13,21.97l-82.98 47.37zm-194.04 48.03l265.83 -151.8c110.5,-63.13 210.52,-83.22 299.99,-60.51 89.42,22.76 164.38,87.78 224.98,195.06 31.14,55.1 50.9,108.92 59.07,161.59 8.17,52.69 5.07,106.33 -9.32,160.92 -12.17,47.61 -34.21,89.03 -66.27,124.41 -31.83,35.32 -83.64,73.61 -155.49,114.62l-235.25 134.34c0.08,-30.42 -2.71,-58.3 -8.83,-83.61 -6.09,-25.29 -18.55,-54.54 -37.19,-87.51l-215.18 -380.7c-18.45,-32.64 -36.94,-58.18 -55.45,-76.4 -18.47,-18.23 -40.87,-34.92 -66.89,-50.41zm1119.99 -410.41l13.41 296.32 170.72 -67.93 -184.13 -228.39zm23.55 -176.04l448.84 527.51c19.67,22.96 40.27,42.33 61.8,58.11 21.25,15.66 44.38,28.51 69.6,38.54l-243.87 97.04c6.53,-20.13 10.59,-36.29 12.29,-48.71 1.52,-12.33 0.7,-22.46 -2.56,-30.8 -3,-7.55 -13.05,-22.36 -30.4,-44.29 -0.86,-0.95 -1.66,-1.94 -2.44,-2.89l-115.24 -143.62 -202.89 80.7 7.49 180.35c0.48,19.04 1.21,33.27 2.53,42.58 1.13,9.38 2.87,17.04 5.27,23.1 3.57,9.08 9.92,17.64 18.88,25.85 8.91,8.01 21.21,16.55 36.76,25.29l-173.84 69.2c19.03,-45.6 28.33,-102.95 28.1,-172.08 0.16,-7.09 0.35,-12.09 0.23,-15.04l-1.21 -646.91 80.66 -63.93zm700.17 -153.36l134.29 657.53 113.44 -23.39c70.27,-14.5 118.36,-53.64 144.12,-117.16 25.98,-63.54 28.05,-148.14 6.48,-253.83 -23.66,-115.98 -59.68,-196.33 -107.77,-241.18 -48.05,-44.62 -113.81,-58.47 -197.08,-41.28l-93.48 19.31zm-199.32 -14.65l299.5 -61.78c124.5,-25.67 225.83,-13.74 303.9,35.64 78.03,49.39 129.35,134.55 153.99,255.38 12.69,62.1 14.93,119.43 6.53,172.05 -8.43,52.65 -27.89,102.7 -58.35,150.15 -26.21,41.5 -59.91,74.04 -101.27,97.76 -41.17,23.69 -102.17,44.01 -183.12,60.67l-265.05 54.69c9.44,-28.9 15.33,-56.27 17.32,-82.25 1.95,-25.95 -0.88,-57.62 -8.47,-94.77l-87.58 -428.89c-7.53,-36.79 -17.26,-66.82 -29.25,-89.91 -11.98,-23.06 -28.16,-45.88 -48.15,-68.74zm1554.44 -196.68l628.79 48.62 -13.26 173.5 -113.75 -106.82c-5.95,-5.04 -13.77,-9.43 -23.36,-13.19 -9.83,-3.73 -19.58,-5.9 -29.24,-6.64l-66.42 -5.13 -41.85 546.69c-3.02,39.4 -1.91,71.79 3.28,96.89 5.24,25.09 14.58,50.92 27.57,77.63l-233.9 -18.09c16.54,-24.42 29.11,-48.54 37.87,-72.59 8.6,-24.04 14.39,-55.87 17.4,-95.27l41.85 -546.69 -68.18 -5.29c-9.25,-0.7 -18.61,-0.04 -27.89,2.23 -9.52,2.25 -17.3,5.47 -23.54,9.58l-128.65 88.04 13.28 -173.47zm844.35 101.5l487.42 107.7 -36.29 165.89 -94.6 -116.95c-8.15,-10.11 -17.36,-17.87 -27.48,-23.33 -10.38,-5.37 -26.64,-10.59 -48.85,-15.48l-10.24 -2.27 -94.95 -20.98 -63.7 291.24 84.33 18.64c16.42,3.64 30.89,5 43.19,4.23 12.17,-0.97 26.86,-5.24 43.94,-13.06l96.48 -42.35 -49.93 228.37 -82.29 -90.21c-7.67,-8.38 -16.11,-15.12 -25.16,-19.97 -9.27,-4.7 -24.24,-9.45 -45.09,-14.07l-77.42 -17.08 -67.75 309.84 114.24 25.27c14.7,3.22 28.06,4.15 40.23,2.99 12.05,-1.4 24.81,-5.09 38.09,-11.3l155.49 -71.63 -63.42 173.52 -482.98 -106.72c20.16,-21.79 36.11,-43.88 48.15,-66.45 11.8,-22.59 21.96,-53.35 30.4,-91.93l93.53 -427.63c8.46,-38.62 12.01,-70.58 10.67,-95.89 -1.54,-25.35 -6.81,-52.15 -16.01,-80.39zm1302.07 410.86l-60.22 154.48 -95.97 -162.24c-5.15,-9.05 -10.98,-16.46 -17.59,-21.84 -6.5,-5.57 -16.34,-10.94 -29.74,-16.2 -61.67,-24.3 -122.02,-14.36 -181.11,30.02 -58.88,44.21 -108.26,117.59 -148.08,219.71 -38.36,98.38 -51,183.02 -38.03,254.28 13.24,71.11 49.38,118.41 108.61,141.77 13.61,5.36 26.23,8.39 37.4,9.18 11.41,0.66 25.49,-1.69 42.14,-7.33l180.18 -48.91 -83.9 152.58c-43.11,-8.23 -81.2,-16.63 -114.24,-24.94 -32.99,-8.52 -60.67,-17.08 -82.9,-25.83 -113.17,-44.58 -187.43,-109.46 -222.69,-194.4 -35.22,-84.93 -30.03,-185.93 15.78,-303.38 48.01,-123.2 118.86,-206.87 212.41,-250.88 93.78,-43.94 199.05,-42.78 316.26,3.39 26.52,10.43 53.2,23.08 80.21,38.2 26.89,14.86 54.02,32.37 81.48,52.34zm225.59 82.73l149.33 88.04 52.83 658.1 186.14 -318.86c19.88,-34.1 33.12,-63.42 39.61,-87.88 6.32,-24.61 9.56,-51.72 9.52,-81.45l141.48 83.43c-25.29,14.31 -47.11,30.01 -65.17,47.24 -18.08,17.21 -36.22,41.26 -54.43,72.45l-3.51 6.03 -309.73 530.62 -76.37 -45.04 -61.43 -728.6 -211.34 362.09c-19.89,34.08 -33.01,63.67 -39.47,88.42 -6.41,24.78 -9.32,52.09 -8.91,82l-141.49 -83.42c25.86,-14.44 47.84,-30.51 66.21,-48.24 18.18,-17.82 37.29,-43.9 57.18,-77.98l220.43 -377.62c19.91,-34.11 33.11,-63.4 39.63,-87.89 6.32,-24.61 9.57,-51.72 9.49,-81.44zm1072.85 783.89c-46.1,-42.31 -100.74,-52.9 -163.54,-31.46 -62.83,21.41 -132.63,74.39 -209.39,158.87 -76.76,84.5 -122.92,159.18 -138.44,224 -15.54,64.84 -0.1,118.54 46,160.85 49.65,45.57 105.74,58.34 168.21,38.47 62.48,-19.84 132.96,-73.03 211.59,-159.57 78.63,-86.56 124.91,-161.92 138.91,-226.27 14.02,-64.3 -3.71,-119.32 -53.34,-164.89zm-504.16 25c86.9,-95.66 179.48,-148.68 277.65,-159.22 98.13,-10.5 189.17,22.73 273.41,100.03 80.08,73.53 119.86,157.64 119.53,252.29 -0.35,94.91 -41.09,186.92 -122.39,276.39 -86.36,95.09 -178.97,147.82 -277.82,158.24 -98.86,10.39 -190.32,-22.97 -274.39,-100.12 -79.86,-73.26 -119.43,-157.22 -118.55,-251.89 0.62,-94.67 41.5,-186.52 122.56,-275.72zm979.87 367.29l152.68 179.05c-29.1,5.2 -55.25,13.08 -78.36,23.81 -23.11,10.73 -49.57,28.84 -79.16,54.34l-419.09 361.04 57.76 67.75c9.77,11.43 19.86,20.28 30.33,26.69 10.45,6.19 22.82,10.96 37.19,14.03l167.05 36.87 -154.59 100.2 -303.37 -355.85c29.1,-5.2 55.07,-13.2 78.22,-23.93 22.94,-10.91 49.46,-29.29 79.28,-55l330.77 -284.94c29.87,-25.72 51.85,-49.12 65.93,-70.14 13.95,-21.19 25.8,-45.8 35.36,-73.92zm596.81 867.72c-32.72,-53.46 -82.3,-78.77 -148.58,-75.57 -66.23,3.18 -147.87,34.76 -244.83,94.71 -96.96,59.97 -161.82,118.97 -194.51,176.96 -32.74,58.01 -32.61,113.9 0.1,167.37 35.22,57.56 85.65,85.37 151.16,83.57 65.52,-1.77 147.82,-33.35 247.14,-94.75 99.34,-61.41 164.48,-121.03 195.6,-179 31.11,-57.97 29.14,-115.74 -6.08,-173.29zm-491.48 -115.65c109.77,-67.9 213.31,-93.19 310.56,-76.13 97.2,17.08 175.63,74.27 235.37,171.87 56.85,92.89 72,184.76 45.73,275.65 -26.35,91.15 -90.76,168.3 -193.44,231.8 -109.09,67.46 -212.57,92.48 -310.43,75.11 -97.91,-17.39 -176.68,-74.78 -236.34,-172.23 -56.65,-92.57 -71.67,-184.23 -44.89,-275 26.58,-90.81 91.09,-167.8 193.44,-231.07zm1069.94 1216.7l-147.94 58.9 46.41 -171.43c3.38,-12.46 4.59,-25.11 3.44,-37.72 -0.88,-12.46 -4,-25.29 -9.31,-38.78 -27.16,-68.9 -76.79,-111.32 -149.24,-127.39 -72.24,-16.09 -159.08,-3.98 -260.35,36.33 -103.63,41.24 -174.87,92.44 -213.68,153.63 -38.81,61.17 -43.55,129.06 -14.16,203.68 2.83,7.22 6.05,14.25 9.81,21.1 3.78,6.83 8.21,13.87 12.99,21.11l129.2 -51.41c14.33,-5.7 25.8,-11.12 34.42,-16.24 8.66,-4.95 16.05,-10.48 22.39,-16.42l54.66 -52.93 86.59 219.79 -75.2 -5.76c-8.25,-0.95 -17.98,-0.31 -29.24,1.82 -11.11,2.06 -22.68,5.61 -34.44,10.29l-167.96 66.84c-21.77,-32.14 -42.36,-66.47 -61.36,-102.92 -19.21,-36.35 -36.8,-75.09 -52.81,-115.74 -42.37,-107.52 -44.09,-203.59 -4.93,-288.17 39.16,-84.63 115.25,-149.49 228.23,-194.48 119.27,-47.47 227.64,-51.89 325.07,-13.35 97.71,38.66 168.36,113.36 211.95,224 14.25,36.18 25.88,72.14 35.06,107.81 9.01,35.94 15.88,71.69 20.4,107.44zm81.71 238.63l63.4 228.25c-28.57,-7.64 -55.54,-11.62 -81.01,-11.72 -25.45,-0.04 -57.06,5.11 -94.58,15.64l-419.56 117.75c-37.85,10.62 -67.77,22.73 -89.51,36.04 -21.73,13.33 -42.73,30.76 -63.25,52.19l-63.42 -228.24c29.37,7.42 56.93,11.42 82.86,11.59 25.9,0.16 57.14,-4.91 93.46,-15.1l419.54 -117.72c36,-10.1 65.15,-22.01 87.19,-35.6 22.06,-13.64 43.59,-31.44 64.88,-53.08zm206.74 1022.76l-162.72 27.67 88.89 -166.24c5.09,-9.12 8.4,-17.95 9.59,-26.4 1.39,-8.5 0.9,-19.71 -1.52,-33.98 -11.02,-65.65 -50.57,-112.5 -118.86,-140.59 -68.04,-27.92 -156.04,-32.68 -263.61,-14.42 -103.65,17.63 -182.36,50.35 -236.44,98.24 -53.84,48 -75.55,103.49 -64.96,166.56 2.44,14.48 6.34,26.94 11.43,36.95 5.31,10.17 14.55,21.1 27.93,32.55l134.52 130.05 -173.33 6.27c-15.17,-41.34 -27.65,-78.51 -37.58,-111.25 -9.69,-32.85 -16.69,-61.07 -20.65,-84.75 -20.27,-120.44 -3.2,-217.83 51.09,-291.95 54.31,-74.11 143.07,-121.66 266.84,-142.68 129.79,-22.07 237.63,-4.17 323.36,53.8 85.77,58.18 138.99,149.47 159.99,274.24 4.74,28.2 7.73,57.7 8.72,88.77 1.21,30.82 0.2,63.23 -2.69,97.16zm-121.05 583.91l-276.63 -103.38 -4.5 184.5 281.13 -81.12zm152.02 90.56l-658.5 209.17c-28.7,9.24 -54.48,20.71 -77.36,34.47 -22.64,13.56 -43.41,29.94 -62.48,49.33l6.43 -263.53c15.86,13.91 29.08,23.97 39.79,30.39 10.72,6.25 20.3,9.45 29.21,9.66 8.09,0.2 25.57,-3.37 52.44,-10.84 1.21,-0.37 2.4,-0.72 3.61,-1.09l176.6 -50.52 5.31 -219.25 -168.07 -63.54c-17.63,-6.98 -30.95,-11.91 -39.98,-14.28 -9.06,-2.62 -16.71,-4 -23.24,-4.17 -9.69,-0.22 -20.03,2.29 -31.03,7.41 -10.8,5.09 -23.44,13.14 -37.54,24.09l4.56 -187.87c34.31,35.4 83.22,66.43 146.58,93.22 6.47,2.93 10.96,5.04 13.71,6.09l592.93 251.66 27.03 99.6z"/>
   <path class="fil0" d="M9920.57 14836.7c-2610.64,0 -4727.8,-2128.03 -4727.8,-4752.1 0,-2624.08 2117.16,-4752.09 4727.8,-4752.09 2610.66,0 4727.82,2128.01 4727.82,4752.09 0,2624.07 -2117.16,4752.1 -4727.82,4752.1z"/>
   <path class="fil7" d="M5780.51 12405.43l92.01 147.96 -257.21 609.51 312.77 -196.44c33.44,-21 58.72,-40.89 75.8,-59.62 17.01,-18.88 32.43,-41.49 46.12,-67.93l87.16 140.2c-29.12,0.93 -55.72,4.7 -79.75,11.59 -24.02,6.85 -51.27,19.74 -81.86,38.95l-5.89 3.69 -520.49 326.9 -47.05 -75.65 282.13 -676.14 -355.11 223.05c-33.46,21.02 -58.78,41.18 -75.96,60.16 -17.14,19 -32.35,41.94 -45.83,68.74l-87.17 -140.23c29.66,-0.76 56.61,-4.8 81.11,-11.96 24.41,-7.34 53.45,-21.58 86.88,-42.58l370.43 -232.64c33.45,-21 58.72,-40.89 75.81,-59.62 17.02,-18.9 32.43,-41.49 46.1,-67.94zm462.07 673.69l328.31 379.59 -127.89 111.75 -6.63 -150.99c-0.49,-13.02 -3.35,-24.8 -8.21,-35.34 -5.19,-10.5 -15.17,-24.46 -30.11,-41.75l-6.9 -7.99 -63.97 -73.95 -224.5 196.19 56.79 65.66c11.07,12.77 21.9,22.59 32.25,29.4 10.38,6.52 24.75,11.88 43.14,15.86l102.87 23.89 -176.04 153.82 -12.6 -122.03c-1.15,-11.36 -3.96,-21.89 -8.35,-31.23 -4.68,-9.37 -13.9,-22.16 -27.96,-38.39l-52.13 -60.28 -238.86 208.71 76.98 89c9.85,11.4 20.06,20.17 30.58,26.57 10.53,6.12 22.99,10.79 37.4,13.76l167.77 35.81 -154.29 101.54 -325.31 -376.12c29.17,-5.45 55.17,-13.64 78.26,-24.57 22.97,-11.1 49.42,-29.73 79.19,-55.75l329.64 -288.01c29.76,-26.01 51.64,-49.61 65.61,-70.8 13.86,-21.33 25.56,-46.07 34.96,-74.35zm471.4 511.41l419.4 366.45 -775.19 282.4 158.7 138.66c20.48,17.88 72.04,27.54 154.75,29.35 30.23,0.56 54.18,1.41 71.77,2.31l-137.06 123.82 -440.02 -384.47 774.84 -281.09 -130.25 -113.81c-25.74,-22.49 -86.33,-33.17 -182.07,-32.39 -12.22,0.14 -22.05,0.27 -28.78,0.47l113.91 -131.7zm682.07 689.37l-226.69 191.22 157.79 95.33 68.9 -286.55zm153.83 -88.36l-144.72 680.68c-6.18,29.69 -8.99,57.99 -8.39,84.85 0.53,26.58 4.43,52.88 11.84,79.18l-225.42 -136.13c19.93,-7.04 35.18,-13.62 46.04,-19.83 10.71,-6.31 18.28,-13.14 22.86,-20.81 4.19,-7.02 9.79,-24.08 16.58,-51.33 0.31,-1.24 0.56,-2.48 0.83,-3.69l43.65 -179.77 -187.53 -113.28 -138.38 115.84c-14.81,11.96 -25.65,21.22 -32.2,27.93 -6.73,6.64 -11.72,12.69 -15.11,18.32 -5,8.37 -7.92,18.67 -8.94,30.84 -0.93,11.98 -0.25,27.07 2.32,44.85l-160.71 -97.04c47.7,-12.55 98.8,-40.01 153.48,-82.3 5.73,-4.21 9.77,-7.11 12.07,-8.99l511.92 -394.96 99.81 25.64zm325.13 197.66l219.22 89.02c-23.54,18.17 -43.19,37.25 -58.85,57.55 -15.62,20.3 -30.89,48.67 -45.5,85.06l-67.05 166.79 266.45 108.18 67.05 -166.75c14.02,-34.92 22.43,-65.41 25.37,-91.33 2.93,-25.89 2.03,-53.96 -2.42,-84.35l219.75 89.24c-23.91,18.01 -43.74,37.03 -59.36,57.33 -15.66,20.3 -30.91,48.67 -45.56,85.06l-163.6 407.07c-14.78,36.76 -23.5,68.04 -26.27,93.56 -2.77,25.49 -1.64,53.01 3.1,82.64l-219.76 -89.23c24.2,-18.73 44.25,-38.33 60.02,-58.96 15.8,-20.67 30.91,-48.7 45.11,-83.96l74.83 -186.18 -266.45 -108.21 -74.83 186.17c-14.78,36.76 -23.5,68.03 -26.29,93.55 -2.77,25.5 -1.81,52.96 2.56,82.46l-219.24 -89.04c23.87,-18.89 43.9,-38.45 59.89,-59.04 15.95,-20.59 31.08,-48.6 45.26,-83.88l163.64 -407.07c14.02,-34.9 22.43,-65.42 25.2,-91.37 2.71,-25.97 1.81,-54.07 -2.27,-84.31zm759.21 288.65l228.42 53.02c-19.44,21.02 -34.99,42.58 -46.73,64.57 -11.6,22.07 -21.78,52.21 -30.46,90.05l-79.57 346.46c-17.47,76.1 -17.37,133.16 0.55,171.04 17.96,37.9 55.78,63.66 113.5,77.05 39.98,9.26 75.18,10.07 105.39,2.56 30.4,-7.45 54.93,-23 73.38,-46.73 8.93,-11.43 16.81,-25.35 23.21,-41.67 6.57,-16.24 13.67,-40.95 21.35,-74.35l11.02 -47.94 70.64 -307.64c8.23,-35.71 11.8,-66.36 10.98,-92.11 -0.8,-25.74 -5.35,-52.77 -13.52,-81.03l178.07 41.32c-21.72,21.76 -38.75,43.76 -51.44,66.18 -12.66,22.4 -23.46,52.61 -32.2,90.67l-78.77 342.93c-10.26,44.66 -19.85,77.59 -28.96,98.59 -8.93,21.21 -20.01,39.3 -33.09,54.67 -26.97,31.56 -65.82,51.8 -116.02,60.55 -50.16,8.6 -108.99,5.19 -175.98,-10.36 -99.64,-23.11 -167.56,-58.69 -203.68,-106.76 -36.33,-48.29 -44.77,-114.23 -25.56,-197.88l86.23 -375.36c8.74,-38.06 12.19,-69.96 10.57,-95.68 -1.6,-25.75 -7.35,-53.04 -17.33,-82.15zm1049.56 315.9l-106.03 277.72 184 6.46 -77.97 -284.18zm91.95 -152.24l201.73 665.85c8.91,28.98 20.12,55.1 33.56,78.31 13.3,22.96 29.41,44.06 48.56,63.47l-262.81 -9.22c14.04,-15.86 24.2,-29.07 30.7,-39.77 6.34,-10.75 9.67,-20.43 9.98,-29.34 0.26,-8.17 -3.08,-25.85 -10.26,-52.97 -0.35,-1.24 -0.72,-2.46 -1.05,-3.66l-48.56 -178.49 -218.67 -7.69 -65.12 168.73c-7.19,17.68 -12.19,31.07 -14.7,40.15 -2.69,9.09 -4.14,16.81 -4.37,23.35 -0.35,9.78 2.07,20.22 7.04,31.36 4.99,10.93 12.83,23.76 23.64,38.1l-187.34 -6.58c35.67,-34.21 67.11,-83.14 94.53,-146.76 2.98,-6.48 5.11,-11 6.22,-13.74l257.23 -594.9 99.69 -26.2zm415.02 10.77l234.37 -20.61c-12.8,26.94 -21.65,52.91 -26.43,78.12 -4.78,25.21 -5.54,57.46 -2.14,96.57l48.24 554.24 88.64 -7.78c15,-1.34 28.08,-4.47 39.39,-9.28 11.1,-4.95 22.18,-12.36 33.04,-22.3l127.44 -115.38 -8.95 185.15 -465.72 40.97c12.79,-26.92 21.45,-52.9 26.23,-78.08 4.58,-25.19 5.11,-57.69 1.68,-97.15l-38.07 -437.37c-3.45,-39.47 -9.57,-71.13 -18.39,-94.94 -9.07,-23.83 -22.06,-47.88 -39.33,-72.16zm1169.2 -191.24l37.21 162.04 -170.81 -79.52c-9.38,-4.58 -18.36,-7.41 -26.86,-8.09 -8.56,-0.89 -19.68,0.27 -33.79,3.53 -64.69,15.02 -109,57.62 -132.89,127.98 -23.77,70.1 -23.3,158.94 1.31,266.05 23.71,103.27 60.96,180.49 111.88,232.06 51.03,51.31 107.57,69.9 169.76,55.48 14.26,-3.33 26.43,-7.99 36.1,-13.7 9.81,-5.96 20.14,-15.93 30.73,-30.06l121.5 -143.07 16.61 174.01c-40.29,17.75 -76.56,32.48 -108.62,44.42 -32.08,11.72 -59.79,20.42 -83.14,25.83 -118.76,27.56 -216.76,16.17 -293.79,-34.04 -77.03,-50.21 -129.63,-136.73 -157.94,-260 -29.69,-129.26 -18.26,-238.83 34.36,-328.55 52.81,-89.72 140.57,-148.72 263.56,-177.25 27.81,-6.46 57.03,-11.2 87.9,-14.05 30.62,-3.03 62.93,-3.98 96.92,-3.07zm423.85 -134.92c-56.75,26.61 -87.56,73.34 -92.01,140.07 -4.48,66.7 17.4,152.05 65.65,256.02 48.24,104 99.22,175.75 152.95,215.17 53.71,39.42 109.13,45.8 165.88,19.16 61.06,-28.61 94.47,-75.91 100.24,-141.7 5.79,-65.77 -15.99,-151.84 -65.43,-258.37 -49.42,-106.53 -100.98,-178.61 -154.84,-216.45 -53.85,-37.83 -111.36,-42.54 -172.44,-13.9zm-171.28 478.75c-54.61,-117.71 -67.75,-224.3 -39.63,-319.7 28.12,-95.37 93.86,-167.24 197.46,-215.83 98.62,-46.23 191.37,-50.81 278.42,-14 87.33,36.88 156.35,110.22 207.44,220.36 54.26,117 67.15,223.49 38.65,319.5 -28.47,95.99 -94.48,168.24 -197.94,216.74 -98.23,46.04 -190.84,50.52 -277.68,13.2 -86.96,-37.05 -155.78,-110.49 -206.72,-220.27zm536.28 -681.01l223.41 -145.81c-0.57,15.58 0,28.53 1.36,38.33 1.31,10.05 3.69,17.78 7.04,22.94 2.91,4.52 7.92,9.33 14.9,14.3 6.95,4.93 16.13,10.35 27.79,16.28l258.6 133.31 -33.33 -293.69c-0.18,-1.05 -0.49,-3.01 -0.8,-5.65 -1.29,-14.82 -4.45,-26.29 -9.52,-34.15 -3.12,-4.84 -9.34,-10.06 -18.06,-15.53 -9.01,-5.51 -20.03,-10.91 -33.58,-16.09l161.55 -105.46c-7.76,30.01 -13.3,60.96 -16.48,92.23 -3.33,31.4 -4.6,63.11 -3.9,95.67l11.72 311.81 110.09 170.43c19.85,30.72 39.1,54.28 57.82,70.8 18.86,16.4 41.21,31.27 67.21,44.46l-197.28 128.77c-1.37,-30.68 -5.85,-58.43 -13.6,-83.24 -7.78,-24.86 -21.95,-53.37 -42.57,-85.31l-93.92 -145.33 -325.13 -162.34c-23.95,-12.17 -48.48,-22.01 -73.54,-29.69 -24.89,-7.47 -51.49,-13.14 -79.78,-17.04zm930.72 -603.42c-47.26,41.3 -64.07,94.75 -50.03,160.13 13.97,65.37 58.41,141.35 133.3,227.96 74.89,86.58 143.59,141.4 206.03,164.44 62.45,23.02 117.46,13.76 164.72,-27.52 50.84,-44.46 69.97,-99.17 57.49,-164.03 -12.48,-64.82 -57.03,-141.52 -133.73,-230.23 -76.72,-88.71 -146.08,-143.68 -208.2,-165.14 -62.17,-21.45 -118.74,-10.05 -169.58,34.39zm-33.35 507.68c-84.78,-98.01 -126.65,-196.85 -125.77,-296.33 0.86,-99.47 44.33,-186.78 130.62,-262.18 82.11,-71.77 170.04,-101.89 263.8,-90.63 94.06,11.29 180.51,62.67 259.81,154.37 84.26,97.42 125.86,196.21 124.77,296.41 -1.04,100.18 -44.66,187.9 -130.82,263.18 -81.83,71.48 -169.59,101.46 -263.31,89.64 -93.73,-11.54 -180.06,-63.07 -259.1,-154.46zm368.39 -885.31l414.88 -479.75 131.05 114.5 -153.56 28.14c-7.59,1.83 -15.76,5.51 -24.51,11.06 -8.88,5.71 -16.42,12.31 -22.8,19.68l-43.82 50.66 412.81 360.68c29.76,26.03 56.36,44.51 79.57,55.28 23.23,10.79 49.49,18.71 78.67,24.14l-154.34 178.43c-9.67,-27.98 -21.49,-52.57 -35.49,-74.02 -14.12,-21.29 -36.16,-45.06 -65.92,-71.05l-412.81 -360.71 -44.97 52.02c-6.12,7.08 -11.21,15.06 -14.92,23.94 -3.88,8.99 -5.95,17.2 -6.45,24.71l-6.36 156.79 -131.03 -114.5zm463.28 -576.25l124.67 -200.52c13.69,26.44 28.98,49.22 46.16,68.2 17.15,19.02 42.32,39.05 75.44,59.85l469.42 294.82 47.14 -75.84c7.97,-12.83 13.34,-25.21 16.32,-37.19 2.75,-11.89 3.57,-25.26 2.19,-39.99l-15 -171.72 141.72 118.64 -247.73 398.49c-13.71,-26.45 -29.12,-49.04 -46.26,-68.04 -17.26,-18.83 -42.71,-38.8 -76.14,-59.82l-370.43 -232.67c-33.45,-20.98 -62.29,-35.13 -86.53,-42.35 -24.36,-7.08 -51.31,-11.1 -80.97,-11.86z"/>
   <path class="fil0" d="M9869.42 18419.96c-4571.95,0 -8279.64,-3726.74 -8279.64,-8322.16 0,-4595.44 3707.69,-8322.18 8279.64,-8322.18 4571.94,0 8279.63,3726.74 8279.63,8322.18 0,4595.42 -3707.69,8322.16 -8279.63,8322.16z"/>
   <path class="fil7" d="M3076.69 4465.55l247.62 -286.33 96.47 84.3 -111.51 20.83c-9.63,1.74 -18.08,5.12 -25.39,9.86 -7.28,5 -16.6,13.97 -27.89,27.01l-5.17 6 -48.26 55.79 169.33 147.93 42.83 -49.53c8.34,-9.66 14.49,-18.81 18.46,-27.27 3.75,-8.46 6.26,-19.83 7.28,-34.08l6.94 -79.72 132.77 116.02 -89.36 22.29c-8.33,2.04 -15.83,5.26 -22.31,9.53 -6.49,4.49 -15.03,12.77 -25.62,25.02l-39.3 45.45 180.14 157.4 58.07 -67.11c7.43,-8.6 12.91,-17.18 16.54,-25.76 3.41,-8.54 5.6,-18.38 6.3,-29.5l8.99 -129.7 91.66 105.15 -245.35 283.7c-7.1,-21.35 -15.9,-40 -26.47,-56.18 -10.66,-16.09 -27.28,-33.95 -49.73,-53.59l-248.64 -217.23c-22.43,-19.62 -42.28,-33.57 -59.46,-41.84 -17.32,-8.17 -36.92,-14.34 -58.94,-18.44zm510.52 -577.93l147.74 -143.38c0.65,11.72 1.86,20.96 3.96,27.9 1.97,7.03 4.96,12.52 8.6,16.31 2.79,2.91 7.8,5.99 14.84,9.16 7.02,3.01 16.27,6.36 27.52,9.62l140.2 41.9 -35.69 -154.38c-2.22,-7.24 -4.72,-14.23 -7.8,-20.63 -2.95,-6.54 -5.29,-10.72 -7.08,-12.58 -2.67,-2.81 -7.51,-5.43 -14.43,-7.88 -6.73,-2.44 -16.52,-5.08 -29.04,-7.55l104.61 -101.54c-0.39,16.25 0.35,34.33 2.01,54.44 1.56,20.01 4.25,42.04 7.93,66.22l27.56 198.44 273.04 79.61c12.52,3.73 28.63,6.44 48.5,8.27 19.7,1.74 41.48,2.52 64.93,2.11l-148.37 144.01c-2.58,-15.45 -4.82,-25.99 -6.44,-31.77 -1.68,-5.67 -3.41,-9.63 -5.48,-11.78 -4.48,-4.64 -15.7,-9.63 -33.48,-15.14 -1.68,-0.45 -2.73,-0.7 -3.14,-0.7l-169.43 -52.17 41.22 177.85c1.41,5.98 3.38,11.98 6.03,17.76 2.77,5.67 5.77,10.29 9.3,13.97 3.61,3.79 9.28,6.82 16.95,9.22 7.76,2.27 17.39,3.81 29.21,4.64l-107.1 103.95c0.95,-17.18 0.41,-36.31 -1.31,-57.41 -1.87,-21.17 -5.15,-45.96 -9.73,-74.54l-32.59 -210.61 -239.71 -68.92c-15.47,-4.62 -33.47,-8.23 -54.26,-10.62 -20.9,-2.5 -43.91,-3.76 -69.07,-3.78zm985.58 -855.15l76.85 98.86 -141.99 0.35c-7.88,-0.12 -14.9,0.83 -20.94,3.08 -6.09,2.14 -13.36,6.49 -21.94,13.24 -39.49,31.01 -56.25,74.31 -50.32,130.05 6.01,55.54 34.5,116.11 85.3,181.46 48.97,62.98 98.92,103.81 150.07,122.77 51.15,18.73 95.71,13.31 133.64,-16.46 8.72,-6.87 15.53,-13.93 20.34,-20.94 4.82,-7.24 8.7,-17.35 11.47,-30.37l37.7 -136.76 66.5 113.65c-21.94,25.01 -42.03,46.73 -60.16,65.15 -18.18,18.3 -34.37,33.11 -48.62,44.3 -72.45,56.89 -143.05,80.49 -211.63,70.86 -68.59,-9.66 -131.99,-51.95 -190.44,-127.1 -61.27,-78.85 -88.19,-157.43 -80.68,-235.61 7.65,-78.25 48.93,-146.7 123.94,-205.62 16.96,-13.31 35.43,-25.91 55.63,-37.75 19.99,-11.89 41.76,-22.9 65.28,-33.16zm303.52 -244.71l316.55 -206.61 69.59 107.75 -112.88 -10.85c-9.75,-1.01 -18.8,-0.1 -27.11,2.44 -8.38,2.8 -19.79,8.81 -34.22,18.21l-6.65 4.36 -61.65 40.24 122.16 189.12 54.8 -35.75c10.65,-6.96 19.05,-14.07 25.2,-21.09 5.91,-7.09 11.46,-17.33 16.32,-30.74l28.55 -74.72 95.83 148.31 -91.99 -3.34c-8.6,-0.33 -16.67,0.66 -24.1,3.01 -7.45,2.52 -17.94,8.09 -31.46,16.92l-50.27 32.82 130.03 201.22 74.19 -48.42c9.5,-6.23 17.12,-12.95 22.97,-20.19 5.64,-7.24 10.45,-16.13 14.16,-26.63l44.21 -122.17 59.3 126.48 -313.68 204.73c-0.96,-22.47 -4.33,-42.87 -10.04,-61.36 -5.82,-18.4 -16.91,-40.2 -33.12,-65.29l-179.43 -277.68c-16.17,-25.08 -31.4,-43.98 -45.68,-56.71 -14.41,-12.62 -31.55,-24.01 -51.58,-34.06zm660.33 -420.19l153.67 -89.14c-0.21,22.49 1.95,43.08 6.71,61.83 4.74,18.79 14.43,41.07 29.16,66.7l208.72 363.39 58.1 -33.71c9.85,-5.71 17.77,-12.03 24.01,-18.94 6,-6.95 11.25,-15.53 15.52,-25.83l50.53 -119.71 52.61 129.43 -305.39 177.21c0.21,-22.49 -2.09,-43.01 -6.81,-61.78 -4.89,-18.67 -14.8,-41.04 -29.68,-66.95l-164.71 -286.75c-14.88,-25.87 -29.12,-45.57 -42.69,-59.03 -13.73,-13.36 -30.25,-25.64 -49.75,-36.72zm664.79 -345.48l342.08 -160.32 54.02 116.42 -110.28 -26.56c-9.52,-2.35 -18.6,-2.72 -27.2,-1.36 -8.68,1.59 -20.83,5.97 -36.39,13.25l-7.2 3.36 -66.64 31.25 94.8 204.36 59.21 -27.72c11.52,-5.41 20.81,-11.27 27.89,-17.37 6.86,-6.21 13.74,-15.56 20.43,-28.18l38.58 -69.98 74.36 160.29 -90.63 -16.19c-8.44,-1.53 -16.59,-1.67 -24.24,-0.41 -7.74,1.46 -18.91,5.53 -33.54,12.37l-54.31 25.46 100.9 217.46 80.17 -37.57c10.3,-4.82 18.76,-10.43 25.57,-16.77 6.59,-6.41 12.54,-14.52 17.69,-24.4l60.72 -114.81 41.17 133.56 -338.96 158.85c2.17,-22.4 1.64,-43.03 -1.44,-62.16 -3.22,-19.04 -11.16,-42.17 -23.77,-69.25l-139.21 -300.13c-12.56,-27.06 -25.04,-47.94 -37.4,-62.52 -12.52,-14.53 -27.91,-28.19 -46.38,-40.93zm745.36 -317.15l123.78 -42.85 402.01 293.4 -90.57 -264.35c-9.67,-28.26 -19.93,-50.31 -30.7,-66.14 -10.96,-15.76 -24.84,-30.94 -41.87,-45.57l117.29 -40.6c-4.29,21.66 -6.01,41.96 -5.07,60.9 0.95,18.88 5.73,41.2 14.6,67.07l1.7 4.97 150.71 439.95 -63.32 21.89 -446.44 -323.1 102.8 300.16c9.71,28.26 20.14,50.42 31.1,66.3 11,15.91 25.16,31.03 42.46,45.53l-117.3 40.6c4.48,-22.05 6.12,-42.64 5.05,-61.95 -1.23,-19.29 -6.75,-43.13 -16.42,-71.42l-107.26 -313.08c-9.68,-28.26 -19.9,-50.31 -30.7,-66.11 -10.94,-15.79 -24.84,-30.97 -41.85,-45.6zm1300.18 -354.85l28.08 122.21 -128.88 -59.99c-7.08,-3.47 -13.83,-5.57 -20.25,-6.09 -6.45,-0.64 -14.82,0.23 -25.45,2.69 -48.81,11.32 -82.24,43.42 -100.26,96.48 -17.92,52.9 -17.59,119.9 0.96,200.69 17.9,77.88 46.02,136.11 84.4,175.02 38.5,38.7 81.15,52.71 128.05,41.84 10.79,-2.5 19.95,-6.03 27.23,-10.36 7.41,-4.47 15.17,-11.98 23.18,-22.63l91.66 -107.93 12.5 131.26c-30.38,13.35 -57.76,24.51 -81.94,33.49 -24.17,8.87 -45.07,15.39 -62.68,19.47 -89.57,20.8 -163.5,12.21 -221.58,-25.64 -58.1,-37.88 -97.8,-103.13 -119.14,-196.11 -22.42,-97.48 -13.75,-180.12 25.92,-247.78 39.84,-67.69 106.03,-112.21 198.78,-133.73 20.97,-4.87 43,-8.43 66.29,-10.58 23.11,-2.29 47.5,-3.03 73.13,-2.31zm402.83 -79.9l176.98 -21.85c-8.92,20.65 -14.92,40.44 -17.87,59.56 -2.94,19.17 -2.65,43.51 0.94,72.87l40.15 328.65c3.61,29.69 9.23,53.53 16.7,71.38 7.43,17.84 18.03,35.61 31.67,53.45l-177 21.85c8.87,-21.23 14.96,-41.51 18,-60.94 3.04,-19.46 2.83,-43.51 -0.64,-72l-40.16 -328.65c-3.45,-28.21 -8.99,-51.39 -16.63,-69.55 -7.65,-18.15 -18.43,-36.35 -32.14,-54.77zm763.16 27.42l-57.73 216.71 138.52 -9.73 -80.79 -206.98zm57.04 -121.47l203.52 483.48c8.99,21.02 19.44,39.71 31.36,56.05 11.74,16.22 25.49,30.76 41.4,43.78l-197.88 13.92c9.28,-12.99 15.87,-23.72 19.95,-32.26 3.88,-8.56 5.58,-16.07 5.13,-22.82 -0.43,-6.15 -4.31,-19.12 -11.84,-38.93 -0.35,-0.88 -0.72,-1.77 -1.09,-2.64l-50.41 -130.05 -164.62 11.6 -35.63 131.7c-3.98,13.86 -6.71,24.26 -7.84,31.27 -1.34,7.01 -1.81,12.92 -1.46,17.89 0.49,7.34 3.14,14.99 7.74,22.94 4.58,7.82 11.49,16.81 20.71,26.71l-141.07 9.93c24.12,-28.54 43.88,-67.73 59.4,-117.59 1.77,-5.08 3.02,-8.65 3.63,-10.79l146.28 -466.65 72.72 -27.54zm1257.22 136.55l-87.19 206.52 138.52 9.74 -51.33 -216.26zm73.29 -112.33l134.62 507.24c5.98,22.08 13.71,42.05 23.28,59.91 9.4,17.68 20.99,34 34.95,49.14l-197.89 -13.9c11,-11.57 19,-21.27 24.19,-29.17 5.05,-7.92 7.8,-15.14 8.27,-21.87 0.44,-6.13 -1.64,-19.54 -6.34,-40.21 -0.22,-0.9 -0.47,-1.81 -0.72,-2.76l-31.89 -135.81 -164.63 -11.59 -53.52 125.45c-5.85,13.16 -10,23.1 -12.11,29.87 -2.28,6.77 -3.58,12.56 -3.92,17.5 -0.5,7.36 1.04,15.28 4.49,23.82 3.45,8.38 9.05,18.24 16.81,29.34l-141.04 -9.9c27.81,-24.86 52.81,-60.92 75.1,-108.13 2.44,-4.78 4.16,-8.14 5.06,-10.19l209.46 -441.62 75.83 -17.12zm1018.67 177.91l-21.67 123.53 -95.3 -105.83c-5.17,-5.96 -10.59,-10.54 -16.27,-13.57 -5.67,-3.12 -13.73,-5.62 -24.47,-7.53 -49.32,-8.75 -92.58,7.71 -129.81,49.45 -37.03,41.65 -62.79,103.45 -77.09,185.13 -13.8,78.72 -10.57,143.35 9.64,194.25 20.38,50.75 54.21,80.37 101.62,88.79 10.88,1.92 20.67,2.29 29.06,1.17 8.56,-1.21 18.66,-5.07 30.13,-11.73l126.33 -63.36 -39.51 125.74c-33.17,0.35 -62.66,-0.12 -88.42,-1.36 -25.7,-1.32 -47.49,-3.53 -65.29,-6.68 -90.53,-16.03 -155.22,-52.98 -194,-110.64 -38.77,-57.68 -49.93,-133.33 -33.45,-227.3 17.28,-98.53 57.37,-171.21 120.21,-217.91 62.97,-46.67 141.21,-61.65 234.96,-45.02 21.19,3.76 42.84,9.12 65.13,16.28 22.14,6.97 44.87,15.88 68.2,26.59zm581.62 262.25l-127.99 183.79 133.47 38.45 -5.48 -222.24zm94.95 -94.55l26.74 524.29c1.27,22.85 4.72,44 10.37,63.47 5.56,19.25 13.52,37.65 24.01,55.35l-190.67 -54.95c13.15,-9 22.99,-16.82 29.72,-23.46 6.57,-6.7 10.73,-13.18 12.58,-19.66 1.68,-5.92 2.46,-19.47 2.11,-40.64 -0.02,-0.97 -0.06,-1.9 -0.1,-2.89l-3.12 -139.52 -158.61 -45.69 -78.32 111.5c-8.46,11.66 -14.56,20.51 -18.04,26.7 -3.62,6.14 -6.08,11.53 -7.43,16.31 -2.04,7.06 -2.16,15.15 -0.56,24.2 1.66,8.94 5.11,19.77 10.41,32.23l-135.94 -39.18c32.35,-18.48 64.25,-48.54 95.83,-90.07 3.37,-4.17 5.77,-7.08 7.08,-8.87l296.23 -388.23 77.71 -0.89zm679.42 296.14l-189.2 470.69 81.22 32.97c50.3,20.42 96.91,16.03 139.59,-13.12 42.81,-29.17 79.36,-81.55 109.74,-157.18 33.39,-83.02 44.21,-148.8 32.57,-197.28 -11.68,-48.34 -47.39,-84.71 -106.97,-108.89l-66.95 -27.19zm-119.43 -93.08l214.39 87.06c89.1,36.2 147.94,86.33 176.58,150.31 28.59,63.95 25.45,139.16 -9.32,225.67 -17.86,44.43 -40.31,81.5 -67.55,111.11 -27.21,29.62 -60.3,52.95 -99.23,70.06 -33.83,15.08 -68.6,21.39 -104.51,18.94 -35.82,-2.36 -82.7,-15.27 -140.64,-38.79l-189.73 -77.05c18,-14.24 33.11,-29.01 45.14,-44.52 12.05,-15.53 23.48,-36.68 34.15,-63.27l123.41 -307.04c10.59,-26.32 16.92,-49.34 18.99,-68.92 2.07,-19.6 1.42,-40.76 -1.68,-63.56zm854.96 376.78l336.27 172.22 -58 114.48 -47.08 -103.69c-4.03,-8.97 -9.32,-16.4 -15.68,-22.36 -6.59,-5.92 -17.49,-12.83 -32.82,-20.69l-7.06 -3.61 -65.52 -33.55 -101.84 200.91 58.21 29.79c11.31,5.8 21.65,9.58 30.77,11.41 9.09,1.63 20.64,1.3 34.66,-1.15l78.63 -12.5 -79.88 157.57 -43.1 -81.78c-4,-7.61 -8.91,-14.17 -14.62,-19.43 -5.91,-5.24 -15.96,-11.6 -30.35,-18.96l-53.39 -27.32 -108.36 213.77 78.83 40.37c10.12,5.18 19.72,8.42 28.88,9.9 9.05,1.28 19.09,1.04 30.03,-0.96l127.37 -22.61 -79.35 114.82 -333.23 -170.67c18.88,-12.09 34.75,-25.19 47.84,-39.38 12.93,-14.3 26.17,-34.83 39.69,-61.48l149.57 -295.05c13.5,-26.61 22.16,-49.32 26,-68.12 3.67,-18.85 4.89,-39.48 3.53,-61.93zm727.67 398.3l121.34 85.39 -100.44 456.41 398.48 -246.65 108.74 76.52c-20.38,9.35 -38.04,20.01 -52.98,32.24 -14.92,12.28 -30.93,30.54 -47.8,54.76l-188.97 271.24c-17.07,24.51 -28.75,46 -35.09,64.28 -6.35,18.26 -10.27,38.6 -12.03,61.04l-144.62 -101.78c20.96,-9.64 39,-20.61 54.09,-33.09 15.1,-12.51 30.93,-30.54 47.3,-54.03l168.9 -242.47 -393.7 242.71 -40.51 -28.51 97.75 -450.99 -171.91 246.76c-15.78,22.65 -26.7,42.8 -32.94,60.63 -6.1,17.93 -10.12,37.83 -11.95,59.85l-100.5 -70.76c20.95,-9.64 38.97,-20.61 54.08,-33.09 15.08,-12.53 30.93,-30.54 47.31,-54.03l188.94 -271.27c16.22,-23.25 27.55,-44.23 34.08,-62.75 6.5,-18.55 10.61,-39.32 12.43,-62.41zm838.22 613.2l140.49 110.35c-20.81,8.23 -39,17.99 -54.53,29.42 -15.54,11.45 -32.49,28.86 -50.62,52.19l-202.82 260.91c-18.31,23.58 -31.09,44.42 -38.38,62.34 -7.29,17.91 -12.29,38 -15.21,60.3l-140.51 -110.32c21.18,-8.73 39.76,-18.72 55.58,-30.33 15.85,-11.59 32.61,-28.74 50.18,-51.35l202.83 -260.94c17.4,-22.39 29.8,-42.75 37.17,-60.99 7.36,-18.25 12.52,-38.8 15.82,-61.58zm747.85 686.69l-86.7 90.25 -20.09 -141.29c-0.99,-7.86 -2.92,-14.73 -5.95,-20.42 -2.98,-5.76 -8.25,-12.38 -16.11,-19.99 -36.03,-34.97 -81.04,-45.66 -135.12,-31.98 -53.89,13.74 -109.6,50.5 -166.9,110.16 -55.25,57.48 -88.52,112.91 -100.1,166.47 -11.31,53.51 0.25,97.08 34.85,130.71 7.96,7.73 15.87,13.51 23.46,17.3 7.76,3.82 18.29,6.28 31.49,7.23l139.99 18.48 -102.7 82.02c-27.71,-18.34 -51.91,-35.34 -72.56,-50.81 -20.56,-15.55 -37.39,-29.62 -50.4,-42.25 -66.13,-64.18 -99.24,-131.18 -99.28,-200.77 -0.04,-69.6 32.8,-138.61 98.74,-207.22 69.13,-71.98 142.79,-109.71 220.87,-113.12 78.17,-3.28 151.34,28.29 219.83,94.76 15.48,15.01 30.44,31.64 44.93,50.11 14.51,18.21 28.39,38.37 41.75,60.36zm347.95 520.86l-206.93 84.05 91.09 105.33 115.84 -189.38zm130.86 -27.35l-261.64 454.37c-11.33,19.84 -19.91,39.48 -25.72,58.9 -5.79,19.18 -9.07,38.97 -9.85,59.57l-130.15 -150.47c15.93,-0.35 28.39,-1.51 37.66,-3.4 9.14,-2.02 16.14,-5.18 21.21,-9.6 4.61,-4.06 12.6,-14.99 23.8,-32.92 0.48,-0.83 0.95,-1.65 1.44,-2.48l72.99 -118.72 -108.25 -125.18 -126.12 50.66c-13.38,5.14 -23.3,9.2 -29.58,12.51 -6.36,3.17 -11.35,6.33 -15.08,9.61 -5.52,4.83 -10.02,11.53 -13.57,19.99 -3.47,8.4 -6.42,19.37 -8.74,32.74l-92.77 -107.28c37.15,2.19 80.19,-5.53 129.18,-23.08 5.07,-1.65 8.66,-2.79 10.73,-3.59l458.8 -163.41 65.66 41.78z"/>
   <path class="fil7" d="M3884.32 15744.56l262.18 272.89 -91.93 89.24 -10.94 -113.46c-0.9,-9.8 -3.49,-18.57 -7.57,-26.26 -4.33,-7.74 -12.38,-17.87 -24.32,-30.29l-5.5 -5.73 -51.09 -53.17 -161.38 156.65 45.38 47.22c8.8,9.18 17.36,16.13 25.41,20.86 8.04,4.49 19.09,7.98 33.12,10.25l78.41 13.88 -126.56 122.87 -14.28 -91.43c-1.31,-8.5 -3.84,-16.32 -7.51,-23.17 -3.9,-6.89 -11.35,-16.17 -22.56,-27.83l-41.62 -43.32 -171.73 166.67 61.47 63.97c7.88,8.24 15.91,14.42 24.08,18.82 8.16,4.17 17.75,7.24 28.71,8.89l127.76 20.32 -112.2 82.6 -259.8 -270.39c21.75,-5.26 41.01,-12.48 57.98,-21.62 16.85,-9.29 36.04,-24.37 57.45,-45.14l236.97 -230c21.39,-20.8 36.97,-39.45 46.65,-55.93 9.59,-16.63 17.43,-35.71 23.42,-57.39zm894.25 849.06l-81.01 93.66 -21.53 -117.96c-2.71,-12.92 -6.3,-23.21 -10.4,-30.8 -4.36,-7.55 -10.47,-14.92 -18.72,-22.12 -22.01,-19.2 -45.03,-28.78 -68.84,-28.72 -23.93,0.21 -44.15,9.82 -60.82,29.11 -10.98,12.69 -16.89,27.07 -17.87,43.1 -0.93,16.15 4.64,44.09 17.07,84l27.24 88.53c14.12,44.58 19.21,81.05 15.15,109.56 -3.84,28.49 -17.02,55.64 -39.39,81.47 -36.47,42.19 -77.66,62.32 -123.84,60.82 -46.22,-1.8 -95.11,-25.19 -146.9,-70.43 -18.04,-15.77 -35.38,-33.73 -51.94,-53.75 -16.42,-20.15 -32.99,-43.13 -49.43,-69.27l88.75 -102.61 14.08 140.11c1.07,12.07 3.9,22.33 8.27,30.52 4.62,8.21 13.69,18.32 27.34,30.24 22.45,19.64 46,29.27 70.46,28.92 24.45,-0.31 45.44,-10.66 62.91,-30.84 11.68,-13.51 18.33,-28.96 19.78,-46.44 1.6,-17.47 -2.17,-42.89 -11.24,-76.1l-28.02 -99.75c-11.88,-41.01 -15.45,-75.36 -10.82,-103.39 4.52,-27.91 17.63,-54.26 39.31,-79.32 34.13,-39.47 73.6,-58.12 118.59,-55.85 44.97,2.06 92.46,25.03 142.44,68.7 15.88,13.9 31.34,29 46.28,45.4 15.02,16.53 29.51,34.15 43.1,53.21zm377.18 271.98l400.06 261.11 -71.34 110.39 -37.01 -112.32c-2.15,-5.53 -5.75,-11.25 -10.79,-17.25 -5.18,-6.07 -10.88,-11.02 -17.02,-15.02l-42.26 -27.58 -224.68 347.73c-16.21,25.09 -27.13,47 -32.72,65.59 -5.58,18.54 -8.7,39.07 -9.68,61.56l-148.8 -97.13c19.78,-10.21 36.82,-21.66 51.29,-34.43 14.34,-12.83 29.69,-31.85 45.87,-56.94l224.7 -347.76 -43.37 -28.34c-5.91,-3.82 -12.38,-6.79 -19.33,-8.67 -7.13,-1.93 -13.43,-2.68 -19.05,-2.24l-117.19 11.69 71.32 -110.39zm881.54 670.31l-160.56 155.86 123.72 63.37 36.84 -219.23zm111.12 -74.6l-73.27 519.79c-3.08,22.67 -3.74,44.09 -1.87,64.28 1.79,19.97 6.12,39.57 13.08,58.96l-176.76 -90.52c14.63,-6.31 25.76,-12.11 33.62,-17.35 7.74,-5.3 13.05,-10.83 16.09,-16.86 2.79,-5.48 6.12,-18.62 9.81,-39.5 0.14,-0.95 0.29,-1.88 0.41,-2.83l23.44 -137.56 -147.04 -75.32 -98.02 94.47c-10.53,9.8 -18.21,17.33 -22.78,22.73 -4.72,5.34 -8.17,10.15 -10.41,14.56 -3.33,6.59 -4.99,14.51 -5.11,23.69 -0.1,9.1 1.25,20.38 4.06,33.65l-125.98 -64.53c35.27,-11.97 72.29,-35.34 111.16,-70.06 4.11,-3.45 7,-5.82 8.62,-7.37l364.5 -324.26 76.45 14.03zm709.47 391.78l-180.99 473.95 81.77 31.52c50.64,19.56 97.19,14.34 139.32,-15.57 42.32,-29.89 77.95,-82.91 107.04,-159.08 31.93,-83.59 41.58,-149.54 29.1,-197.82 -12.52,-48.11 -48.83,-83.86 -108.82,-106.98l-67.42 -26.02zm-121.01 -90.98l215.85 83.29c89.73,34.61 149.44,83.75 179.18,147.19 29.7,63.46 27.85,138.69 -5.4,225.79 -17.1,44.77 -38.91,82.23 -65.61,112.31 -26.71,30.08 -59.38,54.01 -98.03,71.77 -33.54,15.7 -68.2,22.61 -104.16,20.8 -35.86,-1.73 -82.96,-13.82 -141.29,-36.31l-191.04 -73.71c17.73,-14.59 32.61,-29.58 44.35,-45.32 11.78,-15.77 22.85,-37.1 33.07,-63.87l118.07 -309.16c10.1,-26.51 16.05,-49.64 17.78,-69.24 1.72,-19.64 0.7,-40.78 -2.77,-63.54zm1184.11 425.84c-46.01,-10.68 -85.89,2.73 -119.41,40.29 -33.48,37.59 -59.87,98.53 -79.24,182.85 -19.38,84.31 -22.21,150.74 -8.5,199.26 13.71,48.5 43.74,78.15 89.75,88.81 49.51,11.51 91.19,-1.01 125.04,-37.44 33.82,-36.39 60.63,-97.72 80.47,-184.08 19.83,-86.38 22.5,-153.3 7.97,-200.92 -14.54,-47.63 -46.53,-77.27 -96.08,-88.77zm-322.97 204.63c21.92,-95.45 63.36,-164.95 124.13,-208.52 60.79,-43.55 133.08,-55.64 217.11,-36.11 79.96,18.53 137.22,59.13 171.95,121.62 34.83,62.67 41.99,138.5 21.47,227.79 -21.78,94.86 -63.34,164.17 -124.64,207.95 -61.29,43.73 -133.89,55.87 -217.77,36.41 -79.67,-18.48 -136.77,-59.04 -171.17,-121.74 -34.55,-62.61 -41.52,-138.4 -21.08,-227.4zm1856.08 44.5l-44 505.76 87.25 7.66c54.04,4.76 97.32,-13.17 129.65,-53.6 32.47,-40.44 52.17,-101.27 59.25,-182.55 7.78,-89.21 -1.04,-155.29 -26.27,-198.24 -25.22,-42.76 -69.92,-67.04 -133.96,-72.7l-71.92 -6.33zm-141.29 -53.91l230.33 20.26c95.76,8.42 166.61,39.1 212.61,91.83 45.97,52.77 64.82,125.63 56.73,218.57 -4.17,47.76 -14.86,89.8 -32.29,126.11 -17.4,36.35 -42.26,68.39 -74.5,96.16 -27.97,24.38 -59.38,40.64 -94.45,48.87 -34.94,8.23 -83.54,9.69 -145.77,4.21l-203.87 -17.93c13.08,-18.9 23.24,-37.46 30.22,-55.85 6.99,-18.4 11.78,-41.98 14.24,-70.55l28.71 -329.89c2.49,-28.29 1.83,-52.15 -1.88,-71.48 -3.72,-19.33 -10.49,-39.41 -20.08,-60.31zm984.5 20.82l376.52 -26.47 8.9 128.18 -93.48 -64.53c-8.05,-5.62 -16.4,-9.23 -24.9,-11.06 -8.68,-1.65 -21.55,-1.94 -38.71,-0.72l-7.92 0.53 -73.36 5.18 15.66 224.95 65.17 -4.6c12.66,-0.87 23.46,-2.99 32.22,-6.15 8.6,-3.32 18.37,-9.57 29.13,-18.94l60.95 -51.41 12.3 176.41 -78.86 -47.78c-7.34,-4.46 -14.9,-7.53 -22.49,-9.1 -7.74,-1.42 -19.6,-1.65 -35.71,-0.51l-59.79 4.18 16.66 239.37 88.26 -6.19c11.33,-0.8 21.22,-3.01 29.84,-6.48 8.44,-3.59 16.89,-8.99 25.23,-16.38l97.61 -85.32 -9.17 139.5 -373.1 26.24c10,-20.16 16.87,-39.61 20.82,-58.55 3.77,-18.92 4.59,-43.4 2.52,-73.23l-22.97 -330.33c-2.09,-29.83 -6.28,-53.8 -12.64,-71.85 -6.51,-18.09 -16.01,-36.39 -28.69,-54.94zm1478.99 -175.29l142.39 -41.03 289.66 365.72 60.06 -466.52 127.62 -36.78c-5.62,21.76 -8.48,42.29 -8.39,61.66 0.06,19.35 4.1,43.36 12.23,71.81l90.8 318.3c8.23,28.76 17.46,51.41 27.62,67.87 10.12,16.44 23.38,32.33 39.62,47.8l-169.72 48.93c5.75,-22.44 8.62,-43.44 8.46,-63.06 -0.17,-19.68 -4.13,-43.41 -12.01,-70.97l-81.15 -284.53 -60.12 460.3 -47.56 13.72 -287.19 -360.22 82.61 289.58c7.57,26.57 16.29,47.84 26.17,63.89 10.01,16.03 22.86,31.71 38.75,47l-117.98 33.99c5.73,-22.44 8.62,-43.42 8.46,-63.06 -0.17,-19.68 -4.15,-43.39 -12.01,-70.97l-90.82 -318.32c-7.78,-27.29 -16.87,-49.36 -27.09,-66.1 -10.24,-16.77 -23.75,-33.02 -40.41,-49.01zm1096.7 -338.23l352.38 -135.95 45.81 119.94 -108.2 -34.24c-9.3,-2.99 -18.35,-4.02 -27.01,-3.24 -8.77,0.95 -21.19,4.48 -37.24,10.66l-7.4 2.85 -68.66 26.49 80.42 210.53 60.95 -23.52c11.87,-4.58 21.57,-9.78 29.05,-15.39 7.26,-5.69 14.77,-14.54 22.33,-26.65l43.36 -67.09 63.05 165.1 -89.3 -22.53c-8.31,-2.1 -16.44,-2.8 -24.15,-2.1 -7.82,0.92 -19.24,4.18 -34.3,10l-55.95 21.58 85.55 224.02 82.59 -31.87c10.61,-4.11 19.43,-9.1 26.66,-14.96 7.02,-5.9 13.54,-13.55 19.35,-23.06l68.53 -110.27 31.82 136.09 -349.17 134.72c3.7,-22.18 4.62,-42.83 2.86,-62.1 -1.89,-19.2 -8.21,-42.85 -18.86,-70.78l-118.08 -309.14c-10.65,-27.89 -21.65,-49.59 -32.96,-65 -11.48,-15.39 -25.93,-30.1 -43.43,-44.09zm794.68 -337.36l183 -93.7c-2.79,11.39 -4.33,20.59 -4.33,27.85 -0.15,7.33 1.1,13.43 3.49,18.12 1.82,3.58 5.74,8.04 11.51,13.14 5.83,4.91 13.73,10.85 23.52,17.3l121.89 81.22 10.76 -158.1c0.02,-7.59 -0.37,-15 -1.42,-22.04 -0.92,-7.11 -1.95,-11.8 -3.12,-14.09 -1.74,-3.46 -5.62,-7.38 -11.51,-11.78 -5.73,-4.33 -14.33,-9.71 -25.59,-15.76l129.59 -66.36c-5.09,15.43 -9.65,32.94 -13.92,52.67 -4.31,19.55 -8.17,41.44 -11.68,65.68l-31.36 197.84 237.96 156.35c10.88,7.27 25.49,14.59 43.94,22.18 18.37,7.47 38.96,14.61 61.52,21.11l-183.78 94.11c2.01,-15.53 2.94,-26.28 3.08,-32.27 0.04,-5.92 -0.45,-10.21 -1.83,-12.87 -2.91,-5.78 -12.21,-13.82 -27.56,-24.34 -1.52,-0.91 -2.44,-1.43 -2.83,-1.57l-146.86 -99.68 -12.31 182.2c-0.41,6.11 -0.25,12.42 0.59,18.73 1.01,6.25 2.51,11.53 4.81,16.09 2.38,4.71 6.91,9.27 13.54,13.8 6.8,4.46 15.54,8.77 26.6,13.02l-132.67 67.98c5.89,-16.18 10.98,-34.62 15.44,-55.31 4.37,-20.78 8.47,-45.47 12.41,-74.12l30.07 -211.03 -209.2 -136.36c-13.45,-8.97 -29.6,-17.72 -48.79,-26.1 -19.25,-8.52 -40.92,-16.48 -64.96,-23.91zm836.14 -477.27l149.57 -97.62c0.98,22.47 4.2,42.93 9.93,61.4 5.71,18.5 16.54,40.26 32.59,65.08l179.41 277.72c16.21,25.09 31.67,44.03 46.16,56.8 14.47,12.74 31.73,24.05 51.76,34.08l-149.52 97.62c-1.32,-22.99 -4.68,-43.88 -10.41,-62.7 -5.76,-18.83 -16.44,-40.37 -32,-64.42l-179.42 -277.72c-15.39,-23.83 -30.54,-42.23 -45.3,-55.19 -14.75,-12.91 -32.4,-24.53 -52.77,-35.05zm905.83 -649.24l76.84 98.86 -142.01 0.35c-7.88,-0.13 -14.88,0.82 -20.91,3.07 -6.1,2.15 -13.36,6.5 -21.96,13.25 -39.47,31 -56.26,74.31 -50.31,130.05 6.02,55.55 34.5,116.12 85.28,181.48 48.97,62.98 98.95,103.81 150.1,122.77 51.14,18.73 95.7,13.3 133.63,-16.47 8.72,-6.87 15.54,-13.92 20.34,-20.94 4.82,-7.24 8.72,-17.35 11.47,-30.36l37.71 -136.78 66.5 113.65c-21.92,25.03 -42.04,46.73 -60.16,65.15 -18.18,18.32 -34.38,33.11 -48.62,44.31 -72.45,56.9 -143.06,80.5 -211.63,70.87 -68.59,-9.66 -131.99,-51.95 -190.45,-127.12 -61.26,-78.83 -88.19,-157.41 -80.68,-235.62 7.64,-78.25 48.93,-146.68 123.95,-205.62 16.95,-13.3 35.42,-25.89 55.62,-37.75 19.99,-11.88 41.77,-22.9 65.29,-33.15zm534.84 -475.35c-32.79,34.14 -41.91,75.42 -27.11,123.63 14.8,48.17 53.16,102.35 115.1,162.46 61.92,60.1 117.11,96.76 165.53,109.94 48.46,13.18 89.18,2.56 122,-31.59 35.3,-36.76 46.1,-79.11 32.45,-127.03 -13.61,-47.87 -52.11,-102.56 -115.53,-164.11 -63.47,-61.59 -119.15,-98.37 -167.26,-110.35 -48.09,-12.03 -89.85,0.28 -125.18,37.05zm8.17 383.65c-70.11,-68.04 -108.02,-139.54 -113.89,-214.34 -5.83,-74.81 21.1,-143.3 81.01,-205.66 57,-59.31 121.12,-87.76 192.32,-85.49 71.36,2.23 139.71,35.15 205.3,98.81 69.68,67.63 107.39,139.13 113.13,214.47 5.75,75.34 -21.3,144.12 -81.11,206.38 -56.79,59.13 -120.79,87.45 -191.98,84.77 -71.18,-2.5 -139.41,-35.48 -204.78,-98.94z"/>
   <path class="fil7" d="M1640.59 11684.79l0 480.63c0,26.74 2.71,48.69 7.93,65.79 5.23,17.15 13.75,34.89 25.43,53.06l-163.4 0c12.28,-19.99 21.08,-39.52 26.62,-58.75 5.52,-19.23 8.38,-43.28 8.38,-71.98l0 -10.95 0 -342.42 -134.4 0c22.72,-8.27 52.77,-21.78 90,-40.58 37.21,-18.77 83.7,-43.71 139.44,-74.8zm-489.99 -802.19c11.06,2.1 22.88,3.59 35.28,4.64 12.41,1.05 25.57,1.53 39.63,1.53 67.4,0 119.57,-19.11 156.62,-57.25 37.09,-38.16 59.07,-95.1 65.78,-170.84 -21.96,10.22 -43.18,18.01 -63.67,23.15 -20.64,5.1 -40.2,7.68 -58.9,7.68 -52.32,0 -95.21,-16.57 -129,-49.6 -33.64,-32.9 -50.53,-75.42 -50.53,-127.43 0,-55.72 18.86,-101.11 56.51,-135.95 37.68,-35.01 86.69,-52.44 147.07,-52.44 65.95,0 116.62,21.48 151.74,64.45 35.12,42.99 52.77,105.19 52.77,186.47 0,113.28 -22.86,200.71 -68.47,262.47 -45.73,61.58 -110.17,92.38 -193.42,92.38 -27.94,0 -54.1,-4.18 -78.16,-12.46 -24.07,-8.39 -45.15,-20.73 -63.25,-36.8zm298.24 -250.47c0.71,-10.83 1.47,-21.02 2.05,-30.63 0.61,-9.49 0.92,-18.34 0.92,-26.59 0,-74.25 -8.37,-128.92 -25.12,-163.78 -16.89,-34.99 -42.9,-52.45 -78.18,-52.45 -32.73,0 -57.26,12.18 -73.82,36.37 -16.44,24.18 -24.7,60.26 -24.7,108.02 0,46.13 10.18,80.97 30.65,104.88 20.5,23.73 50.53,35.61 90.14,35.61 12.27,0 24.98,-0.91 37.97,-2.87 12.87,-1.93 26.33,-4.8 40.09,-8.56zm-302.27 -1128.78c11.06,2.11 22.89,3.59 35.28,4.64 12.42,1.05 25.58,1.51 39.62,1.51 67.42,0 119.57,-19.08 156.64,-57.23 37.09,-38.18 59.07,-95.1 65.78,-170.83 -21.98,10.21 -43.18,18.01 -63.69,23.12 -20.63,5.12 -40.21,7.68 -58.9,7.68 -52.32,0 -95.22,-16.55 -129,-49.6 -33.62,-32.9 -50.51,-75.42 -50.51,-127.41 0,-55.72 18.84,-101.1 56.5,-135.95 37.69,-35.03 86.7,-52.46 147.08,-52.46 65.93,0 116.62,21.5 151.72,64.47 35.14,42.97 52.79,105.17 52.79,186.45 0,113.28 -22.87,200.73 -68.47,262.49 -45.75,61.58 -110.18,92.38 -193.45,92.38 -27.93,0 -54.08,-4.18 -78.15,-12.48 -24.06,-8.39 -45.14,-20.73 -63.24,-36.78zm298.22 -250.47c0.74,-10.83 1.48,-21.04 2.07,-30.65 0.62,-9.47 0.93,-18.32 0.93,-26.59 0,-74.23 -8.4,-128.9 -25.12,-163.78 -16.89,-34.99 -42.9,-52.42 -78.18,-52.42 -32.74,0 -57.26,12.17 -73.85,36.35 -16.44,24.19 -24.67,60.26 -24.67,108.01 0,46.15 10.18,81 30.64,104.89 20.49,23.72 50.52,35.6 90.15,35.6 12.25,0 24.96,-0.88 37.97,-2.87 12.87,-1.93 26.31,-4.8 40.06,-8.54zm201.63 -1669.82l0 480.64c0,26.71 2.71,48.66 7.93,65.79 5.23,17.14 13.75,34.86 25.43,53.04l-163.4 0c12.27,-19.97 21.08,-39.51 26.62,-58.74 5.52,-19.22 8.38,-43.28 8.38,-71.97l0 -10.96 0 -342.41 -134.4 0c22.72,-8.28 52.77,-21.79 90,-40.58 37.21,-18.78 83.7,-43.72 139.44,-74.81z"/>
   <path class="fil7" d="M18586.14 8065.72l0 480.63c0,26.74 2.71,48.69 7.92,65.81 5.24,17.13 13.75,34.87 25.43,53.04l-163.41 0c12.27,-19.97 21.1,-39.52 26.62,-58.75 5.54,-19.21 8.37,-43.26 8.37,-71.96l0 -10.97 0 -342.42 -134.39 0c22.72,-8.25 52.79,-21.78 90,-40.58 37.23,-18.75 83.72,-43.69 139.46,-74.8z"/>
   <path class="fil7" d="M18510.59 9763.78c11.06,2.11 22.88,3.59 35.3,4.64 12.4,1.06 25.55,1.51 39.61,1.51 67.41,0 119.58,-19.08 156.65,-57.23 37.08,-38.16 59.04,-95.1 65.76,-170.83 -21.97,10.21 -43.19,18.01 -63.67,23.14 -20.63,5.1 -40.21,7.66 -58.91,7.66 -52.31,0 -95.21,-16.55 -128.99,-49.58 -33.64,-32.92 -50.53,-75.44 -50.53,-127.43 0,-55.72 18.86,-101.1 56.5,-135.95 37.68,-35.01 86.72,-52.46 147.08,-52.46 65.94,0 116.62,21.5 151.74,64.47 35.11,42.97 52.76,105.17 52.76,186.47 0,113.28 -22.86,200.71 -68.47,262.48 -45.72,61.58 -110.15,92.38 -193.42,92.38 -27.93,0 -54.1,-4.19 -78.15,-12.46 -24.08,-8.4 -45.16,-20.74 -63.26,-36.81zm298.24 -250.46c0.72,-10.84 1.48,-21.05 2.07,-30.64 0.62,-9.49 0.91,-18.34 0.91,-26.59 0,-74.25 -8.38,-128.92 -25.13,-163.8 -16.89,-34.99 -42.87,-52.42 -78.17,-52.42 -32.74,0 -57.27,12.17 -73.83,36.37 -16.44,24.18 -24.69,60.24 -24.69,108.01 0,46.13 10.18,80.98 30.64,104.87 20.51,23.74 50.53,35.6 90.15,35.6 12.27,0 24.97,-0.88 37.97,-2.84 12.86,-1.96 26.33,-4.81 40.08,-8.56z"/>
   <path class="fil7" d="M18464.25 11105.05c11.06,2.11 22.88,3.59 35.3,4.64 12.39,1.06 25.55,1.51 39.61,1.51 67.4,0 119.57,-19.08 156.64,-57.23 37.09,-38.16 59.05,-95.1 65.76,-170.83 -21.96,10.21 -43.18,18.01 -63.66,23.14 -20.63,5.1 -40.21,7.66 -58.91,7.66 -52.32,0 -95.21,-16.55 -129,-49.58 -33.64,-32.92 -50.53,-75.44 -50.53,-127.43 0,-55.72 18.87,-101.1 56.51,-135.95 37.68,-35.01 86.71,-52.46 147.07,-52.46 65.95,0 116.62,21.5 151.74,64.47 35.12,42.97 52.77,105.17 52.77,186.47 0,113.28 -22.86,200.71 -68.47,262.48 -45.73,61.58 -110.15,92.38 -193.42,92.38 -27.94,0 -54.1,-4.19 -78.16,-12.47 -24.07,-8.39 -45.15,-20.73 -63.25,-36.8zm298.24 -250.47c0.71,-10.83 1.47,-21.04 2.07,-30.63 0.61,-9.49 0.9,-18.34 0.9,-26.59 0,-74.25 -8.37,-128.92 -25.12,-163.8 -16.89,-34.99 -42.88,-52.42 -78.18,-52.42 -32.73,0 -57.26,12.17 -73.82,36.37 -16.44,24.17 -24.69,60.24 -24.69,108.01 0,46.13 10.18,80.98 30.64,104.87 20.5,23.74 50.53,35.6 90.14,35.6 12.27,0 24.98,-0.88 37.97,-2.84 12.87,-1.96 26.33,-4.81 40.09,-8.57z"/>
   <path class="fil7" d="M18661.32 11682.52l0 480.64c0,26.73 2.71,48.66 7.92,65.78 5.24,17.15 13.75,34.89 25.43,53.06l-163.39 0c12.27,-19.99 21.08,-39.52 26.62,-58.75 5.52,-19.23 8.37,-43.28 8.37,-71.98l0 -10.95 0 -342.42 -134.39 0c22.72,-8.27 52.77,-21.78 90,-40.57 37.21,-18.78 83.72,-43.72 139.44,-74.81z"/>
   <g>
    <polygon class="fil8" points="9888.28,14381.44 9888.28,5737.53 9970.1,5737.53 9970.1,14381.44 "/>
   </g>
   <g>
    <polygon class="fil8" points="14259.75,9972.84 5639.55,9972.84 5639.55,9890.6 14259.75,9890.6 "/>
   </g>
   <g>
    <polygon class="fil8" points="9944.18,14408.98 9920.06,14330.4 10333.82,14183.84 10717.91,14011.15 11072.7,13814.19 11398.52,13594.8 11695.68,13354.79 11964.51,13096.01 12205.32,12820.25 12418.41,12529.34 12604.04,12225.08 12762.54,11909.29 12894.14,11583.78 12999.12,11250.39 13077.74,10910.96 13130.28,10567.29 13156.98,10221.27 13158.13,9874.71 13133.99,9529.49 13084.83,9187.45 13010.93,8850.43 12912.58,8520.29 12790.04,8198.89 12643.61,7888.04 12473.56,7589.61 12280.2,7305.42 12063.79,7037.29 11824.62,6787.06 11562.94,6556.52 11279.03,6347.5 10973.13,6161.81 10645.46,6001.25 10296.26,5867.66 9925.71,5762.88 9944.37,5682.8 10321.86,5789.56 10677.92,5925.77 11012.21,6089.55 11324.37,6279.04 11614.12,6492.36 11881.12,6727.58 12125.11,6982.85 12345.78,7256.26 12542.88,7545.93 12716.13,7849.98 12865.26,8166.55 12990.02,8493.77 13090.13,8829.77 13165.33,9172.71 13215.35,9520.73 13239.91,9871.97 13238.74,10224.59 13211.56,10576.73 13158.08,10926.54 13078.02,11272.15 12971.1,11611.7 12837.02,11943.33 12675.5,12265.14 12486.27,12575.28 12269.06,12871.83 12023.59,13152.91 11749.62,13416.63 11446.92,13661.1 11115.24,13884.45 10754.37,14084.77 10364.08,14260.24 "/>
   </g>
   <g>
    <polygon class="fil8" points="9914.02,5766.93 9956.06,5696.37 10219.42,5869.39 10463.37,6058.99 10688.12,6264.15 10893.87,6483.81 11080.86,6716.94 11249.3,6962.49 11399.46,7219.44 11531.57,7486.75 11645.91,7763.38 11742.73,8048.34 11822.28,8340.6 11884.84,8639.15 11930.66,8942.98 11959.99,9251.11 11973.11,9562.52 11970.26,9876.22 11951.69,10191.22 11917.65,10506.52 11868.4,10821.11 11804.18,11134.03 11725.23,11444.26 11631.8,11750.81 11524.13,12052.69 11402.47,12348.9 11267.04,12638.45 11118.09,12920.32 10955.85,13193.53 10780.55,13457.08 10592.44,13709.96 10391.74,13951.16 10178.69,14179.67 9953.53,14394.48 9899.01,14333.16 10120.65,14121.71 10330.48,13896.64 10528.26,13658.94 10713.75,13409.6 10886.69,13149.59 11046.81,12879.94 11193.86,12601.65 11327.61,12315.7 11447.79,12023.11 11554.16,11724.89 11646.47,11422.02 11724.46,11115.53 11787.9,10806.41 11836.55,10495.68 11870.15,10184.34 11888.48,9873.4 11891.31,9563.88 11878.37,9256.77 11849.46,8953.06 11804.32,8653.79 11742.76,8359.92 11664.51,8072.48 11569.37,7792.46 11457.11,7520.83 11327.5,7258.58 11180.3,7006.69 11015.28,6766.12 10832.19,6537.85 10630.8,6322.83 10410.83,6122.03 10172,5936.41 "/>
   </g>
   <g>
    <polygon class="fil8" points="9964.28,14349.74 9905.8,14407.26 9592.77,14072.04 9307,13738.07 9047.77,13405.62 8814.41,13074.97 8606.2,12746.39 8422.45,12420.13 8262.46,12096.5 8125.52,11775.76 8010.96,11458.2 7918.06,11144.11 7846.13,10833.76 7794.46,10527.47 7762.34,10225.52 7749.07,9928.21 7753.94,9635.83 7776.21,9348.69 7815.17,9067.06 7870.12,8791.25 7940.29,8521.55 8025,8258.23 8123.48,8001.58 8235.02,7751.86 8358.9,7509.36 8494.4,7274.36 8640.78,7047.11 8797.34,6827.9 8963.33,6616.98 9138.06,6414.64 9320.79,6221.13 9510.82,6036.71 9707.43,5861.68 9909.92,5696.27 9960.16,5761.17 9760.37,5924.38 9566.38,6097.09 9378.89,6279.03 9198.64,6469.92 9026.33,6669.46 8862.68,6877.4 8708.38,7093.45 8564.16,7317.34 8430.72,7548.78 8308.76,7787.5 8199,8033.22 8102.12,8285.69 8018.83,8544.61 7949.84,8809.73 7895.85,9080.8 7857.55,9357.53 7835.66,9639.69 7830.89,9927.03 7843.92,10219.28 7875.5,10516.19 7926.33,10817.52 7997.14,11123.01 8088.66,11432.42 8201.6,11745.48 8336.7,12061.94 8494.69,12381.53 8676.3,12703.99 8882.27,13029.05 9113.33,13356.42 9370.2,13685.85 9653.61,14017.04 "/>
   </g>
   <g>
    <path class="fil8" d="M5589.88 10046.27l81.82 0 0 0 5.53 220.07 16.44 217.16 27.06 213.98 37.43 210.57 47.51 206.86 57.33 202.9 66.89 198.68 76.19 194.17 85.21 189.41 93.96 184.39 102.47 179.08 110.68 173.51 118.63 167.68 126.32 161.56 133.74 155.19 140.89 148.53 147.78 141.61 154.4 134.44 160.73 126.96 166.82 119.25 172.62 111.25 178.16 102.98 183.45 94.45 188.44 85.65 193.19 76.58 197.66 67.24 201.86 57.63 205.81 47.76 209.48 37.61 212.91 27.19 216.04 16.53 218.95 5.56 0 82.24 -223.07 -5.68 -220.18 -16.83 -216.99 -27.73 -213.54 -38.33 -209.79 -48.68 -205.78 -58.75 -201.48 -68.54 -196.93 -78.06 -192.1 -87.31 -186.97 -96.27 -181.6 -104.96 -175.94 -113.39 -170.02 -121.53 -163.81 -129.4 -157.34 -137 -150.6 -144.33 -143.59 -151.37 -136.3 -158.15 -128.74 -164.66 -120.91 -170.88 -112.8 -176.85 -104.43 -182.52 -95.78 -187.95 -86.85 -193.07 -77.67 -197.95 -68.19 -202.52 -58.45 -206.84 -48.43 -210.86 -38.15 -214.63 -27.58 -218.1 -16.74 -221.32 -5.65 -224.21 0 0zm4336.4 -4358.68l0 82.24 0 0 -218.95 5.56 -216.04 16.53 -212.91 27.19 -209.48 37.61 -205.81 47.76 -201.86 57.63 -197.66 67.24 -193.19 76.58 -188.44 85.65 -183.45 94.45 -178.16 102.98 -172.62 111.25 -166.82 119.25 -160.73 126.96 -154.4 134.44 -147.78 141.61 -140.89 148.53 -133.74 155.19 -126.32 161.56 -118.63 167.68 -110.68 173.51 -102.47 179.09 -93.96 184.38 -85.21 189.41 -76.19 194.17 -66.89 198.68 -57.33 202.9 -47.51 206.87 -37.43 210.56 -27.06 213.99 -16.44 217.16 -5.53 220.07 -81.82 0 5.65 -224.21 16.74 -221.32 27.58 -218.11 38.15 -214.62 48.43 -210.87 58.45 -206.84 68.19 -202.52 77.67 -197.95 86.85 -193.07 95.78 -187.94 104.43 -182.53 112.8 -176.85 120.91 -170.88 128.74 -164.66 136.3 -158.15 143.59 -151.37 150.6 -144.33 157.34 -137 163.81 -129.4 170.02 -121.53 175.94 -113.39 181.6 -104.96 186.97 -96.27 192.1 -87.31 196.93 -78.06 201.48 -68.54 205.78 -58.75 209.79 -48.68 213.54 -38.33 216.99 -27.73 220.18 -16.83 223.07 -5.68 0 0zm4336.38 4358.68l-81.82 0 0 0 -5.53 -220.07 -16.44 -217.16 -27.06 -213.99 -37.43 -210.56 -47.51 -206.87 -57.33 -202.9 -66.89 -198.68 -76.19 -194.17 -85.21 -189.41 -93.96 -184.39 -102.46 -179.08 -110.68 -173.51 -118.64 -167.68 -126.32 -161.56 -133.74 -155.19 -140.88 -148.53 -147.78 -141.61 -154.4 -134.44 -160.73 -126.96 -166.82 -119.25 -172.62 -111.25 -178.16 -102.98 -183.45 -94.45 -188.44 -85.65 -193.18 -76.58 -197.67 -67.24 -201.86 -57.63 -205.81 -47.76 -209.48 -37.61 -212.9 -27.19 -216.04 -16.53 -218.95 -5.56 0 -82.24 223.07 5.68 220.18 16.83 216.98 27.73 213.54 38.33 209.79 48.68 205.78 58.75 201.49 68.54 196.92 78.06 192.1 87.31 186.97 96.27 181.6 104.96 175.94 113.39 170.02 121.53 163.81 129.4 157.34 137 150.6 144.33 143.58 151.37 136.3 158.15 128.74 164.66 120.92 170.88 112.8 176.85 104.42 182.54 95.78 187.93 86.85 193.07 77.67 197.95 68.19 202.52 58.45 206.84 48.43 210.87 38.15 214.62 27.58 218.11 16.74 221.32 5.65 224.21 0 0zm-4336.38 4358.67l0 -82.24 0 0 218.95 -5.56 216.04 -16.53 212.9 -27.19 209.48 -37.61 205.81 -47.76 201.86 -57.63 197.67 -67.24 193.18 -76.58 188.44 -85.65 183.45 -94.45 178.16 -102.98 172.62 -111.25 166.82 -119.25 160.73 -126.96 154.4 -134.44 147.78 -141.61 140.88 -148.53 133.74 -155.19 126.32 -161.56 118.64 -167.68 110.68 -173.51 102.46 -179.07 93.96 -184.4 85.21 -189.41 76.19 -194.17 66.89 -198.68 57.33 -202.9 47.51 -206.86 37.43 -210.57 27.06 -213.98 16.44 -217.16 5.53 -220.07 81.82 0 -5.65 224.21 -16.74 221.32 -27.58 218.1 -38.15 214.63 -48.43 210.86 -58.45 206.84 -68.19 202.52 -77.67 197.95 -86.85 193.07 -95.78 187.94 -104.42 182.53 -112.8 176.85 -120.92 170.88 -128.74 164.66 -136.3 158.15 -143.58 151.37 -150.6 144.33 -157.34 137 -163.81 129.4 -170.02 121.53 -175.94 113.39 -181.6 104.96 -186.97 96.27 -192.1 87.31 -196.92 78.06 -201.49 68.54 -205.78 58.75 -209.79 48.68 -213.54 38.33 -216.98 27.73 -220.18 16.83 -223.07 5.68 0 0z"/>
   </g>
   <g>
    <polygon class="fil8" points="13011.82,13059.28 12971.28,13130.7 12789.27,13029.71 12606.19,12934.87 12422.09,12846.22 12237.03,12763.79 12051.06,12687.6 11864.23,12617.68 11676.61,12554.09 11488.24,12496.81 11299.18,12445.91 11109.48,12401.4 10919.21,12363.33 10728.39,12331.7 10537.1,12306.57 10345.39,12287.95 10153.29,12275.88 9960.88,12270.4 9768.2,12271.52 9575.3,12279.28 9382.23,12293.73 9189.05,12314.89 8995.8,12342.78 8802.56,12377.45 8609.35,12418.93 8416.23,12467.26 8223.27,12522.46 8030.49,12584.58 7837.98,12653.64 7645.78,12729.68 7453.93,12812.73 7262.5,12902.84 7071.53,13000.04 6881.1,13104.36 6840.88,13032.74 7033.47,12927.24 7226.66,12828.92 7420.39,12737.73 7614.6,12653.64 7809.24,12576.64 8004.25,12506.68 8199.57,12443.74 8395.15,12387.8 8590.91,12338.81 8786.82,12296.75 8982.8,12261.58 9178.79,12233.29 9374.75,12211.83 9570.62,12197.18 9766.32,12189.3 9961.8,12188.16 10157.01,12193.72 10351.87,12205.97 10546.34,12224.85 10740.35,12250.34 10933.85,12282.41 11126.78,12321.02 11319.08,12366.13 11510.68,12417.73 11701.53,12475.75 11891.59,12540.18 12080.78,12610.98 12269.05,12688.11 12456.35,12771.54 12642.61,12861.23 12827.79,12957.15 "/>
   </g>
   <g>
    <polygon class="fil8" points="11616.68,13986.23 11596.28,14065.87 11488.38,14038.76 11380.53,14013.33 11272.79,13989.57 11165.15,13967.5 11057.68,13947.12 10950.39,13928.44 10843.33,13911.48 10736.51,13896.22 10629.98,13882.7 10523.78,13870.91 10417.92,13860.86 10312.46,13852.55 10207.4,13846.01 10102.8,13841.22 9998.69,13838.21 9895.1,13836.98 9792.04,13837.53 9689.58,13839.88 9587.73,13844.02 9486.52,13849.98 9386.01,13857.75 9286.2,13867.34 9187.14,13878.77 9088.86,13892.04 8991.39,13907.14 8894.77,13924.11 8799.01,13942.93 8704.17,13963.62 8610.28,13986.19 8517.36,14010.63 8425.44,14036.97 8334.55,14065.2 8309.53,13986.9 8402.14,13958.13 8495.78,13931.31 8590.4,13906.41 8685.99,13883.44 8782.49,13862.39 8879.87,13843.25 8978.11,13826 9077.18,13810.64 9177.04,13797.17 9277.64,13785.56 9378.97,13775.81 9481,13767.92 9583.69,13761.88 9687,13757.68 9790.9,13755.29 9895.36,13754.74 10000.35,13755.99 10105.84,13759.04 10211.8,13763.89 10318.18,13770.51 10424.96,13778.92 10532.12,13789.09 10639.6,13801.04 10747.39,13814.72 10855.45,13830.14 10963.75,13847.3 11072.24,13866.2 11180.91,13886.8 11289.73,13909.11 11398.65,13933.13 11507.64,13958.84 "/>
   </g>
   <g>
    <polygon class="fil8" points="12971.07,6997.19 13012.03,7068.39 12841.47,7163.53 12668.76,7252.03 12493.95,7333.95 12317.13,7409.31 12138.37,7478.2 11957.73,7540.63 11775.32,7596.68 11591.17,7646.38 11405.38,7689.79 11218.03,7726.96 11029.17,7757.94 10838.9,7782.78 10647.26,7801.52 10454.35,7814.24 10260.25,7820.97 10065,7821.78 9868.69,7816.7 9671.39,7805.79 9473.17,7789.11 9274.1,7766.71 9074.25,7738.63 8873.7,7704.94 8672.5,7665.69 8470.74,7620.93 8268.49,7570.7 8065.8,7515.05 7862.76,7454.05 7659.43,7387.75 7455.87,7316.18 7252.17,7239.41 7048.39,7157.49 6844.6,7070.47 6877.38,6995.11 7079.59,7081.47 7281.73,7162.73 7483.75,7238.86 7685.57,7309.81 7887.1,7375.53 8088.3,7435.99 8289.09,7491.1 8489.38,7540.85 8689.12,7585.17 8888.24,7624.02 9086.67,7657.35 9284.32,7685.11 9481.13,7707.27 9677.05,7723.75 9871.99,7734.52 10065.88,7739.54 10258.67,7738.75 10450.27,7732.1 10640.62,7719.56 10829.66,7701.06 11017.31,7676.56 11203.51,7646.02 11388.2,7609.39 11571.29,7566.6 11752.74,7517.64 11932.47,7462.41 12110.41,7400.9 12286.51,7333.05 12460.69,7258.81 12632.88,7178.11 12803.03,7090.93 "/>
   </g>
   <g>
    <polygon class="fil8" points="11524.99,6015.24 11547.71,6094.24 11430.56,6127.42 11315.14,6158.4 11201.36,6187.16 11089.17,6213.73 10978.48,6238.09 10869.21,6260.26 10761.29,6280.25 10654.65,6298.06 10549.21,6313.7 10444.88,6327.17 10341.61,6338.48 10239.31,6347.62 10137.91,6354.62 10037.36,6359.47 9937.54,6362.18 9838.41,6362.77 9739.89,6361.22 9641.9,6357.55 9544.38,6351.76 9447.25,6343.88 9350.43,6333.89 9253.86,6321.81 9157.46,6307.64 9061.17,6291.4 8964.91,6273.1 8868.58,6252.73 8772.15,6230.32 8675.51,6205.87 8578.6,6179.38 8481.36,6150.86 8383.69,6120.34 8285.53,6087.8 8311.79,6009.92 8408.65,6042.02 8504.96,6072.12 8600.8,6100.22 8696.23,6126.31 8791.35,6150.38 8886.22,6172.43 8980.93,6192.46 9075.55,6210.44 9170.16,6226.4 9264.84,6240.31 9359.67,6252.17 9454.71,6261.98 9550.08,6269.72 9645.84,6275.41 9742.05,6279 9838.81,6280.53 9936.2,6279.96 10034.28,6277.29 10133.15,6272.52 10232.87,6265.64 10333.55,6256.64 10435.24,6245.51 10538.01,6232.24 10641.97,6216.82 10747.17,6199.25 10853.69,6179.52 10961.62,6157.61 11071.03,6133.53 11182,6107.26 11294.6,6078.8 11408.9,6048.12 "/>
   </g>
   <path class="fil2" d="M8348.34 8706.95l748.06 0 -952.61 1591.91c-119.8,208.53 -262.99,402.38 -5.84,396.51l450 -11.75c280.52,-2.94 227.93,-73.43 452.93,-384.76l628.25 -1001.56 745.13 0 -1046.11 1621.29c-96.43,146.85 -239.61,331.89 -528.9,334.83l-832.8 8.81 -628.25 -5.87c-505.52,-23.5 -227.92,-367.14 -116.88,-610.92l318.51 -619.73 768.51 -1318.76zm1566.24 2502.41l1154.23 -1906.18 -634.09 0 362.34 -596.23 2100.99 0 -362.34 596.23 -721.76 0 -1154.23 1906.18 -745.14 0z"/>
   <g>
    <polygon class="fil8" points="9912.68,5689.02 9934.02,5768.42 9579.68,5880.08 9242.73,6016.93 8923.69,6177.48 8623.08,6360.19 8341.45,6563.57 8079.32,6786.11 7837.28,7026.27 7615.86,7282.55 7415.62,7553.45 7237.12,7837.43 7080.92,8132.99 6947.56,8438.58 6837.61,8752.7 6751.64,9073.79 6690.18,9400.37 6653.79,9730.89 6643.01,10063.83 6658.4,10397.69 6700.51,10730.94 6769.89,11062.09 6867.1,11389.63 6992.68,11712.05 7147.22,12027.88 7331.29,12335.61 7545.47,12633.76 7790.36,12920.81 8066.55,13195.28 8374.63,13455.63 8715.22,13700.37 9088.93,13927.94 9496.34,14136.82 9938.07,14325.46 9908.63,14402.18 9461.8,14211.36 9049.17,13999.82 8670.26,13769.07 8324.53,13520.65 8011.45,13256.08 7730.52,12976.91 7481.23,12684.68 7263.03,12380.95 7075.4,12067.28 6917.82,11745.25 6789.74,11416.41 6690.59,11082.35 6619.83,10744.62 6576.88,10404.79 6561.19,10064.41 6572.17,9725.03 6609.26,9388.19 6671.88,9055.45 6759.47,8728.34 6871.46,8408.4 7007.28,8097.15 7166.36,7796.15 7348.16,7506.93 7552.1,7231.03 7777.62,6969.99 8024.16,6725.37 8291.15,6498.71 8578.02,6291.55 8884.19,6105.46 9209.09,5941.97 9552.12,5802.64 "/>
   </g>
  </g>
 </g>
</svg>
